<mxfile host="Electron" agent="Mozilla/5.0 (Windows NT 10.0; Win64; x64) AppleWebKit/537.36 (KHTML, like Gecko) draw.io/25.0.2 Chrome/128.0.6613.186 Electron/32.2.5 Safari/537.36" version="25.0.2">
  <diagram id="6a731a19-8d31-9384-78a2-239565b7b9f0" name="Page-1">
    <mxGraphModel dx="5206" dy="3342" grid="1" gridSize="10" guides="1" tooltips="1" connect="1" arrows="1" fold="1" page="1" pageScale="1" pageWidth="1169" pageHeight="827" background="none" math="0" shadow="0">
      <root>
        <mxCell id="0" />
        <mxCell id="1" parent="0" />
        <mxCell id="SqnKiE-Mk17VoA1t4yWk-1925" style="edgeStyle=none;shape=connector;rounded=0;orthogonalLoop=1;jettySize=auto;html=1;strokeColor=#ffffff;strokeWidth=4;align=center;verticalAlign=middle;fontFamily=Helvetica;fontSize=11;fontColor=default;labelBackgroundColor=default;endArrow=classic;" edge="1" parent="1" source="1753" target="SqnKiE-Mk17VoA1t4yWk-1825">
          <mxGeometry relative="1" as="geometry" />
        </mxCell>
        <mxCell id="1753" value="法身" style="rounded=1;whiteSpace=wrap;html=1;shadow=0;labelBackgroundColor=none;strokeColor=#d79b00;strokeWidth=3;fillColor=#ffcd28;fontFamily=Helvetica;fontSize=14;align=center;spacing=5;fontStyle=1;arcSize=7;perimeterSpacing=2;gradientColor=#ffa500;" parent="1" vertex="1">
          <mxGeometry x="215" y="385.5" width="150" height="60" as="geometry" />
        </mxCell>
        <mxCell id="1754" value="Theories" style="rounded=1;whiteSpace=wrap;html=1;shadow=0;labelBackgroundColor=none;strokeColor=#B09500;strokeWidth=3;fillColor=#e3c800;fontFamily=Helvetica;fontSize=14;fontColor=#ffffff;align=center;spacing=5;fontStyle=0;arcSize=7;perimeterSpacing=2;verticalAlign=middle;" parent="1" vertex="1">
          <mxGeometry x="-110" y="504.5" width="150" height="60" as="geometry" />
        </mxCell>
        <mxCell id="1755" value="Appeal" style="rounded=1;whiteSpace=wrap;html=1;shadow=0;labelBackgroundColor=none;strokeColor=#B09500;strokeWidth=3;fillColor=#e3c800;fontFamily=Helvetica;fontSize=14;fontColor=#ffffff;align=center;spacing=5;fontStyle=0;arcSize=7;perimeterSpacing=2;verticalAlign=middle;" parent="1" vertex="1">
          <mxGeometry x="-230" y="374.5" width="150" height="60" as="geometry" />
        </mxCell>
        <mxCell id="1756" value="Layout" style="rounded=1;whiteSpace=wrap;html=1;shadow=0;labelBackgroundColor=none;strokeColor=#B09500;strokeWidth=3;fillColor=#e3c800;fontFamily=Helvetica;fontSize=14;align=center;spacing=5;fontStyle=0;arcSize=7;perimeterSpacing=2;fontColor=#ffffff;" parent="1" vertex="1">
          <mxGeometry x="-110" y="170" width="150" height="60" as="geometry" />
        </mxCell>
        <mxCell id="1760" value="锻体" style="rounded=1;whiteSpace=wrap;html=1;shadow=0;labelBackgroundColor=none;strokeColor=#B20000;strokeWidth=3;fillColor=#e51400;fontFamily=Helvetica;fontSize=14;fontColor=#ffffff;align=center;spacing=5;fontStyle=1;arcSize=7;perimeterSpacing=2;" parent="1" vertex="1">
          <mxGeometry x="650" y="620" width="150" height="60" as="geometry" />
        </mxCell>
        <mxCell id="1761" value="Content" style="rounded=1;whiteSpace=wrap;html=1;shadow=0;labelBackgroundColor=none;strokeColor=#6D1F00;strokeWidth=3;fillColor=#a0522d;fontFamily=Helvetica;fontSize=14;fontColor=#ffffff;align=center;spacing=5;arcSize=7;perimeterSpacing=2;" parent="1" vertex="1">
          <mxGeometry x="1070" y="660" width="150" height="60" as="geometry" />
        </mxCell>
        <mxCell id="1762" value="Budget" style="rounded=1;whiteSpace=wrap;html=1;shadow=0;labelBackgroundColor=none;strokeColor=#6D1F00;strokeWidth=3;fillColor=#a0522d;fontFamily=Helvetica;fontSize=14;fontColor=#ffffff;align=center;spacing=5;arcSize=7;perimeterSpacing=2;" parent="1" vertex="1">
          <mxGeometry x="1000" y="887" width="150" height="60" as="geometry" />
        </mxCell>
        <mxCell id="1763" value="Analysis" style="rounded=1;whiteSpace=wrap;html=1;shadow=0;labelBackgroundColor=none;strokeColor=#6D1F00;strokeWidth=3;fillColor=#a0522d;fontFamily=Helvetica;fontSize=14;fontColor=#ffffff;align=center;spacing=5;arcSize=7;perimeterSpacing=2;" parent="1" vertex="1">
          <mxGeometry x="720" y="920" width="150" height="60" as="geometry" />
        </mxCell>
        <mxCell id="SqnKiE-Mk17VoA1t4yWk-1849" value="" style="edgeStyle=none;shape=connector;rounded=0;orthogonalLoop=1;jettySize=auto;html=1;strokeColor=#ffffff;strokeWidth=4;align=center;verticalAlign=middle;fontFamily=Helvetica;fontSize=11;fontColor=default;labelBackgroundColor=default;endArrow=classic;" edge="1" parent="1" source="1764" target="SqnKiE-Mk17VoA1t4yWk-1793">
          <mxGeometry relative="1" as="geometry" />
        </mxCell>
        <mxCell id="SqnKiE-Mk17VoA1t4yWk-1852" style="edgeStyle=none;shape=connector;rounded=0;orthogonalLoop=1;jettySize=auto;html=1;strokeColor=#ffffff;strokeWidth=4;align=center;verticalAlign=middle;fontFamily=Helvetica;fontSize=11;fontColor=default;labelBackgroundColor=default;endArrow=classic;" edge="1" parent="1" source="1764" target="SqnKiE-Mk17VoA1t4yWk-1825">
          <mxGeometry relative="1" as="geometry" />
        </mxCell>
        <mxCell id="SqnKiE-Mk17VoA1t4yWk-1853" style="edgeStyle=none;shape=connector;rounded=0;orthogonalLoop=1;jettySize=auto;html=1;strokeColor=#ffffff;strokeWidth=4;align=center;verticalAlign=middle;fontFamily=Helvetica;fontSize=11;fontColor=default;labelBackgroundColor=default;endArrow=classic;" edge="1" parent="1" source="1764" target="SqnKiE-Mk17VoA1t4yWk-1828">
          <mxGeometry relative="1" as="geometry" />
        </mxCell>
        <mxCell id="1764" value="御剑" style="rounded=1;whiteSpace=wrap;html=1;shadow=0;labelBackgroundColor=none;strokeColor=#2D7600;strokeWidth=3;fillColor=#60a917;fontFamily=Helvetica;fontSize=14;fontColor=#ffffff;align=center;spacing=5;fontStyle=1;arcSize=7;perimeterSpacing=2;" parent="1" vertex="1">
          <mxGeometry x="510" y="170" width="150" height="60" as="geometry" />
        </mxCell>
        <mxCell id="SqnKiE-Mk17VoA1t4yWk-1989" style="edgeStyle=none;shape=connector;rounded=0;orthogonalLoop=1;jettySize=auto;html=1;strokeColor=#ffffff;strokeWidth=4;align=center;verticalAlign=middle;fontFamily=Helvetica;fontSize=11;fontColor=default;labelBackgroundColor=default;endArrow=classic;" edge="1" parent="1" source="1771" target="SqnKiE-Mk17VoA1t4yWk-1828">
          <mxGeometry relative="1" as="geometry" />
        </mxCell>
        <mxCell id="1771" value="道术" style="rounded=1;whiteSpace=wrap;html=1;shadow=0;labelBackgroundColor=none;strokeColor=#001DBC;strokeWidth=3;fillColor=#0050ef;fontFamily=Helvetica;fontSize=14;fontColor=#ffffff;align=center;spacing=5;fontStyle=1;arcSize=7;perimeterSpacing=2;" parent="1" vertex="1">
          <mxGeometry x="795" y="385.4999999999999" width="150" height="60" as="geometry" />
        </mxCell>
        <mxCell id="1772" value="Events" style="rounded=1;whiteSpace=wrap;html=1;shadow=0;labelBackgroundColor=none;strokeColor=#006EAF;strokeWidth=3;fillColor=#1ba1e2;fontFamily=Helvetica;fontSize=14;fontColor=#ffffff;align=center;spacing=5;fontStyle=0;arcSize=7;perimeterSpacing=2;" parent="1" vertex="1">
          <mxGeometry x="1200" y="490" width="150" height="60" as="geometry" />
        </mxCell>
        <mxCell id="1776" value="Sponsoring" style="rounded=1;whiteSpace=wrap;html=1;shadow=0;labelBackgroundColor=none;strokeColor=#006EAF;strokeWidth=3;fillColor=#1ba1e2;fontFamily=Helvetica;fontSize=14;fontColor=#ffffff;align=center;spacing=5;fontStyle=0;arcSize=7;perimeterSpacing=2;" parent="1" vertex="1">
          <mxGeometry x="1200" y="314.5" width="150" height="60" as="geometry" />
        </mxCell>
        <mxCell id="1778" value="PR" style="rounded=1;whiteSpace=wrap;html=1;shadow=0;labelBackgroundColor=none;strokeColor=#006EAF;strokeWidth=3;fillColor=#1ba1e2;fontFamily=Helvetica;fontSize=14;fontColor=#ffffff;align=center;spacing=5;fontStyle=0;arcSize=7;perimeterSpacing=2;" parent="1" vertex="1">
          <mxGeometry x="1020" y="220" width="150" height="60" as="geometry" />
        </mxCell>
        <mxCell id="SqnKiE-Mk17VoA1t4yWk-1917" style="edgeStyle=none;shape=connector;rounded=0;orthogonalLoop=1;jettySize=auto;html=1;strokeColor=#ffffff;strokeWidth=4;align=center;verticalAlign=middle;fontFamily=Helvetica;fontSize=11;fontColor=default;labelBackgroundColor=default;endArrow=classic;" edge="1" parent="1" source="SqnKiE-Mk17VoA1t4yWk-1782" target="SqnKiE-Mk17VoA1t4yWk-1916">
          <mxGeometry relative="1" as="geometry" />
        </mxCell>
        <mxCell id="SqnKiE-Mk17VoA1t4yWk-1918" style="edgeStyle=none;shape=connector;rounded=0;orthogonalLoop=1;jettySize=auto;html=1;strokeColor=#ffffff;strokeWidth=4;align=center;verticalAlign=middle;fontFamily=Helvetica;fontSize=11;fontColor=default;labelBackgroundColor=default;endArrow=classic;" edge="1" parent="1" source="SqnKiE-Mk17VoA1t4yWk-1782" target="SqnKiE-Mk17VoA1t4yWk-1783">
          <mxGeometry relative="1" as="geometry" />
        </mxCell>
        <mxCell id="SqnKiE-Mk17VoA1t4yWk-1920" style="edgeStyle=none;shape=connector;rounded=0;orthogonalLoop=1;jettySize=auto;html=1;strokeColor=#ffffff;strokeWidth=4;align=center;verticalAlign=middle;fontFamily=Helvetica;fontSize=11;fontColor=default;labelBackgroundColor=default;endArrow=classic;" edge="1" parent="1" source="SqnKiE-Mk17VoA1t4yWk-1782" target="SqnKiE-Mk17VoA1t4yWk-1919">
          <mxGeometry relative="1" as="geometry" />
        </mxCell>
        <mxCell id="SqnKiE-Mk17VoA1t4yWk-1782" value="锻体" style="rounded=1;whiteSpace=wrap;html=1;shadow=0;labelBackgroundColor=none;strokeColor=#23445d;strokeWidth=3;fillColor=#bac8d3;fontFamily=Helvetica;fontSize=14;align=center;spacing=5;fontStyle=1;arcSize=7;perimeterSpacing=2;" vertex="1" parent="1">
          <mxGeometry x="355" y="630" width="150" height="60" as="geometry" />
        </mxCell>
        <mxCell id="SqnKiE-Mk17VoA1t4yWk-1783" value="Analysis" style="rounded=1;whiteSpace=wrap;html=1;shadow=0;labelBackgroundColor=none;strokeColor=#23445d;strokeWidth=3;fillColor=#bac8d3;fontFamily=Helvetica;fontSize=14;align=center;spacing=5;arcSize=7;perimeterSpacing=2;" vertex="1" parent="1">
          <mxGeometry x="-110" y="720" width="150" height="60" as="geometry" />
        </mxCell>
        <mxCell id="SqnKiE-Mk17VoA1t4yWk-1941" style="edgeStyle=none;shape=connector;rounded=0;orthogonalLoop=1;jettySize=auto;html=1;strokeColor=#ffffff;strokeWidth=4;align=center;verticalAlign=middle;fontFamily=Helvetica;fontSize=11;fontColor=default;labelBackgroundColor=default;endArrow=classic;" edge="1" parent="1" source="SqnKiE-Mk17VoA1t4yWk-1784" target="SqnKiE-Mk17VoA1t4yWk-1939">
          <mxGeometry relative="1" as="geometry" />
        </mxCell>
        <mxCell id="SqnKiE-Mk17VoA1t4yWk-1784" value="武器伤害增加3" style="rounded=1;whiteSpace=wrap;html=1;shadow=0;labelBackgroundColor=none;strokeColor=none;strokeWidth=3;fillColor=#f5af58;fontFamily=Helvetica;fontSize=14;fontColor=#FFFFFF;align=center;spacing=5;arcSize=7;perimeterSpacing=2;" vertex="1" parent="1">
          <mxGeometry x="1080" y="-170" width="150" height="60" as="geometry" />
        </mxCell>
        <mxCell id="SqnKiE-Mk17VoA1t4yWk-1911" style="edgeStyle=none;shape=connector;rounded=0;orthogonalLoop=1;jettySize=auto;html=1;strokeColor=#ffffff;strokeWidth=4;align=center;verticalAlign=middle;fontFamily=Helvetica;fontSize=11;fontColor=default;labelBackgroundColor=default;endArrow=classic;" edge="1" parent="1" source="SqnKiE-Mk17VoA1t4yWk-1786" target="1764">
          <mxGeometry relative="1" as="geometry" />
        </mxCell>
        <mxCell id="SqnKiE-Mk17VoA1t4yWk-1912" style="edgeStyle=none;shape=connector;rounded=0;orthogonalLoop=1;jettySize=auto;html=1;strokeColor=#ffffff;strokeWidth=4;align=center;verticalAlign=middle;fontFamily=Helvetica;fontSize=11;fontColor=default;labelBackgroundColor=default;endArrow=classic;" edge="1" parent="1" source="SqnKiE-Mk17VoA1t4yWk-1786" target="1753">
          <mxGeometry relative="1" as="geometry" />
        </mxCell>
        <mxCell id="SqnKiE-Mk17VoA1t4yWk-1913" style="edgeStyle=none;shape=connector;rounded=0;orthogonalLoop=1;jettySize=auto;html=1;strokeColor=#ffffff;strokeWidth=4;align=center;verticalAlign=middle;fontFamily=Helvetica;fontSize=11;fontColor=default;labelBackgroundColor=default;endArrow=classic;" edge="1" parent="1" source="SqnKiE-Mk17VoA1t4yWk-1786" target="SqnKiE-Mk17VoA1t4yWk-1782">
          <mxGeometry relative="1" as="geometry" />
        </mxCell>
        <mxCell id="SqnKiE-Mk17VoA1t4yWk-1914" style="edgeStyle=none;shape=connector;rounded=0;orthogonalLoop=1;jettySize=auto;html=1;strokeColor=#ffffff;strokeWidth=4;align=center;verticalAlign=middle;fontFamily=Helvetica;fontSize=11;fontColor=default;labelBackgroundColor=default;endArrow=classic;" edge="1" parent="1" source="SqnKiE-Mk17VoA1t4yWk-1786" target="1760">
          <mxGeometry relative="1" as="geometry" />
        </mxCell>
        <mxCell id="SqnKiE-Mk17VoA1t4yWk-1915" style="edgeStyle=none;shape=connector;rounded=0;orthogonalLoop=1;jettySize=auto;html=1;strokeColor=#ffffff;strokeWidth=4;align=center;verticalAlign=middle;fontFamily=Helvetica;fontSize=11;fontColor=default;labelBackgroundColor=default;endArrow=classic;" edge="1" parent="1" source="SqnKiE-Mk17VoA1t4yWk-1786" target="1771">
          <mxGeometry relative="1" as="geometry" />
        </mxCell>
        <mxCell id="SqnKiE-Mk17VoA1t4yWk-1786" value="修炼" style="rounded=1;whiteSpace=wrap;html=1;shadow=0;labelBackgroundColor=none;strokeWidth=3;fontFamily=Helvetica;fontSize=14;align=center;spacing=5;fontStyle=1;arcSize=7;perimeterSpacing=2;" vertex="1" parent="1">
          <mxGeometry x="510" y="385.5" width="150" height="60" as="geometry" />
        </mxCell>
        <mxCell id="SqnKiE-Mk17VoA1t4yWk-1835" value="" style="rounded=0;orthogonalLoop=1;jettySize=auto;html=1;strokeWidth=4;strokeColor=#ffffff;" edge="1" parent="1" source="SqnKiE-Mk17VoA1t4yWk-1793" target="SqnKiE-Mk17VoA1t4yWk-1834">
          <mxGeometry relative="1" as="geometry" />
        </mxCell>
        <mxCell id="SqnKiE-Mk17VoA1t4yWk-1793" value="属性点" style="rounded=1;whiteSpace=wrap;html=1;shadow=0;labelBackgroundColor=none;strokeColor=none;strokeWidth=3;fillColor=#f5af58;fontFamily=Helvetica;fontSize=14;fontColor=#FFFFFF;align=center;spacing=5;arcSize=7;perimeterSpacing=2;" vertex="1" parent="1">
          <mxGeometry x="505" y="60" width="150" height="60" as="geometry" />
        </mxCell>
        <mxCell id="SqnKiE-Mk17VoA1t4yWk-1873" value="" style="edgeStyle=none;shape=connector;rounded=0;orthogonalLoop=1;jettySize=auto;html=1;strokeColor=#ffffff;strokeWidth=4;align=center;verticalAlign=middle;fontFamily=Helvetica;fontSize=11;fontColor=default;labelBackgroundColor=default;endArrow=classic;" edge="1" parent="1" source="SqnKiE-Mk17VoA1t4yWk-1796" target="SqnKiE-Mk17VoA1t4yWk-1870">
          <mxGeometry relative="1" as="geometry" />
        </mxCell>
        <mxCell id="SqnKiE-Mk17VoA1t4yWk-2008" style="edgeStyle=none;shape=connector;rounded=0;orthogonalLoop=1;jettySize=auto;html=1;strokeColor=#ffffff;strokeWidth=4;align=center;verticalAlign=middle;fontFamily=Helvetica;fontSize=11;fontColor=default;labelBackgroundColor=default;endArrow=classic;" edge="1" parent="1" source="SqnKiE-Mk17VoA1t4yWk-1796" target="SqnKiE-Mk17VoA1t4yWk-1933">
          <mxGeometry relative="1" as="geometry" />
        </mxCell>
        <mxCell id="SqnKiE-Mk17VoA1t4yWk-2009" style="edgeStyle=none;shape=connector;rounded=0;orthogonalLoop=1;jettySize=auto;html=1;strokeColor=#ffffff;strokeWidth=4;align=center;verticalAlign=middle;fontFamily=Helvetica;fontSize=11;fontColor=default;labelBackgroundColor=default;endArrow=classic;" edge="1" parent="1" source="SqnKiE-Mk17VoA1t4yWk-1796" target="SqnKiE-Mk17VoA1t4yWk-1927">
          <mxGeometry relative="1" as="geometry" />
        </mxCell>
        <mxCell id="SqnKiE-Mk17VoA1t4yWk-2084" value="" style="edgeStyle=none;shape=connector;rounded=0;orthogonalLoop=1;jettySize=auto;html=1;strokeColor=#ffffff;strokeWidth=4;align=center;verticalAlign=middle;fontFamily=Helvetica;fontSize=11;fontColor=default;labelBackgroundColor=default;endArrow=classic;" edge="1" parent="1" source="SqnKiE-Mk17VoA1t4yWk-1796" target="SqnKiE-Mk17VoA1t4yWk-2033">
          <mxGeometry relative="1" as="geometry" />
        </mxCell>
        <mxCell id="SqnKiE-Mk17VoA1t4yWk-2086" value="" style="edgeStyle=none;shape=connector;rounded=0;orthogonalLoop=1;jettySize=auto;html=1;strokeColor=#ffffff;strokeWidth=4;align=center;verticalAlign=middle;fontFamily=Helvetica;fontSize=11;fontColor=default;labelBackgroundColor=default;endArrow=classic;" edge="1" parent="1" source="SqnKiE-Mk17VoA1t4yWk-1796" target="SqnKiE-Mk17VoA1t4yWk-2056">
          <mxGeometry relative="1" as="geometry" />
        </mxCell>
        <mxCell id="SqnKiE-Mk17VoA1t4yWk-1796" value="筑基&lt;div&gt;飞剑攻击减少 50% 伤害， 飞剑攻击后追加两次 30% 伤害的攻击&lt;/div&gt;" style="rounded=1;whiteSpace=wrap;html=1;shadow=0;labelBackgroundColor=none;strokeColor=#2D7600;strokeWidth=3;fillColor=#60a917;fontFamily=Helvetica;fontSize=14;fontColor=#ffffff;align=center;spacing=5;arcSize=7;perimeterSpacing=2;" vertex="1" parent="1">
          <mxGeometry x="477.5" y="-190" width="205" height="100" as="geometry" />
        </mxCell>
        <mxCell id="SqnKiE-Mk17VoA1t4yWk-1858" value="" style="edgeStyle=none;shape=connector;rounded=0;orthogonalLoop=1;jettySize=auto;html=1;strokeColor=#ffffff;strokeWidth=4;align=center;verticalAlign=middle;fontFamily=Helvetica;fontSize=11;fontColor=default;labelBackgroundColor=default;endArrow=classic;" edge="1" parent="1" source="SqnKiE-Mk17VoA1t4yWk-1825" target="SqnKiE-Mk17VoA1t4yWk-1882">
          <mxGeometry relative="1" as="geometry" />
        </mxCell>
        <mxCell id="SqnKiE-Mk17VoA1t4yWk-1825" value="获得的防御+5" style="rounded=1;whiteSpace=wrap;html=1;shadow=0;labelBackgroundColor=none;strokeColor=none;strokeWidth=3;fillColor=#f5af58;fontFamily=Helvetica;fontSize=14;fontColor=#FFFFFF;align=center;spacing=5;arcSize=7;perimeterSpacing=2;" vertex="1" parent="1">
          <mxGeometry x="320" y="50" width="150" height="60" as="geometry" />
        </mxCell>
        <mxCell id="SqnKiE-Mk17VoA1t4yWk-1859" value="" style="edgeStyle=none;shape=connector;rounded=0;orthogonalLoop=1;jettySize=auto;html=1;strokeColor=#ffffff;strokeWidth=4;align=center;verticalAlign=middle;fontFamily=Helvetica;fontSize=11;fontColor=default;labelBackgroundColor=default;endArrow=classic;" edge="1" parent="1" source="SqnKiE-Mk17VoA1t4yWk-1828" target="SqnKiE-Mk17VoA1t4yWk-1885">
          <mxGeometry relative="1" as="geometry" />
        </mxCell>
        <mxCell id="SqnKiE-Mk17VoA1t4yWk-1828" value="武器伤害增加3" style="whiteSpace=wrap;html=1;fontSize=14;fillColor=#f5af58;strokeColor=none;fontColor=#FFFFFF;rounded=1;shadow=0;labelBackgroundColor=none;strokeWidth=3;spacing=5;arcSize=7;" vertex="1" parent="1">
          <mxGeometry x="710" y="60" width="150" height="60" as="geometry" />
        </mxCell>
        <mxCell id="SqnKiE-Mk17VoA1t4yWk-1833" value="获得的防御+5" style="rounded=1;whiteSpace=wrap;html=1;shadow=0;labelBackgroundColor=none;strokeColor=none;strokeWidth=3;fillColor=#f5af58;fontFamily=Helvetica;fontSize=14;fontColor=#FFFFFF;align=center;spacing=5;arcSize=7;perimeterSpacing=2;" vertex="1" parent="1">
          <mxGeometry x="-110" y="-170" width="150" height="60" as="geometry" />
        </mxCell>
        <mxCell id="SqnKiE-Mk17VoA1t4yWk-1855" style="edgeStyle=none;shape=connector;rounded=0;orthogonalLoop=1;jettySize=auto;html=1;strokeColor=#ffffff;strokeWidth=4;align=center;verticalAlign=middle;fontFamily=Helvetica;fontSize=11;fontColor=default;labelBackgroundColor=default;endArrow=classic;" edge="1" parent="1" source="SqnKiE-Mk17VoA1t4yWk-1834" target="SqnKiE-Mk17VoA1t4yWk-1796">
          <mxGeometry relative="1" as="geometry" />
        </mxCell>
        <mxCell id="SqnKiE-Mk17VoA1t4yWk-1834" value="属性点" style="rounded=1;whiteSpace=wrap;html=1;shadow=0;labelBackgroundColor=none;strokeColor=none;strokeWidth=3;fillColor=#f5af58;fontFamily=Helvetica;fontSize=14;fontColor=#FFFFFF;align=center;spacing=5;arcSize=7;perimeterSpacing=2;" vertex="1" parent="1">
          <mxGeometry x="505" y="-40" width="150" height="60" as="geometry" />
        </mxCell>
        <mxCell id="SqnKiE-Mk17VoA1t4yWk-1836" value="元婴&lt;div&gt;你在战斗中获得的所有闪避都会转化为防御&lt;/div&gt;" style="rounded=1;whiteSpace=wrap;html=1;shadow=0;labelBackgroundColor=none;strokeColor=#2D7600;strokeWidth=3;fillColor=#60a917;fontFamily=Helvetica;fontSize=14;fontColor=#ffffff;align=center;spacing=5;arcSize=7;perimeterSpacing=2;" vertex="1" parent="1">
          <mxGeometry x="-730" y="-860" width="205" height="100" as="geometry" />
        </mxCell>
        <mxCell id="SqnKiE-Mk17VoA1t4yWk-1837" value="元婴&lt;div&gt;你在战斗中获得的所有灵气都会转化为剑气&lt;/div&gt;" style="rounded=1;whiteSpace=wrap;html=1;shadow=0;labelBackgroundColor=none;strokeColor=#2D7600;strokeWidth=3;fillColor=#60a917;fontFamily=Helvetica;fontSize=14;fontColor=#ffffff;align=center;spacing=5;arcSize=7;perimeterSpacing=2;" vertex="1" parent="1">
          <mxGeometry x="1730" y="-860" width="205" height="100" as="geometry" />
        </mxCell>
        <mxCell id="SqnKiE-Mk17VoA1t4yWk-1838" value="化神&lt;div&gt;剑气的效果修改为使你受到的伤害减少&lt;br&gt;&lt;/div&gt;" style="rounded=1;whiteSpace=wrap;html=1;shadow=0;labelBackgroundColor=none;strokeColor=#2D7600;strokeWidth=3;fillColor=#60a917;fontFamily=Helvetica;fontSize=14;fontColor=#ffffff;align=center;spacing=5;arcSize=7;perimeterSpacing=2;" vertex="1" parent="1">
          <mxGeometry x="-1337.5" y="-1210" width="205" height="100" as="geometry" />
        </mxCell>
        <mxCell id="SqnKiE-Mk17VoA1t4yWk-1990" value="" style="edgeStyle=none;shape=connector;rounded=0;orthogonalLoop=1;jettySize=auto;html=1;strokeColor=#ffffff;strokeWidth=4;align=center;verticalAlign=middle;fontFamily=Helvetica;fontSize=11;fontColor=default;labelBackgroundColor=default;endArrow=classic;" edge="1" parent="1" source="SqnKiE-Mk17VoA1t4yWk-1839" target="SqnKiE-Mk17VoA1t4yWk-1962">
          <mxGeometry relative="1" as="geometry" />
        </mxCell>
        <mxCell id="SqnKiE-Mk17VoA1t4yWk-1839" value="&lt;div&gt;化神&lt;/div&gt;剑气不会减少，但消耗剑气的效果依然生效" style="rounded=1;whiteSpace=wrap;html=1;shadow=0;labelBackgroundColor=none;strokeColor=#2D7600;strokeWidth=3;fillColor=#60a917;fontFamily=Helvetica;fontSize=14;fontColor=#ffffff;align=center;spacing=5;arcSize=7;perimeterSpacing=2;" vertex="1" parent="1">
          <mxGeometry x="-137.5" y="-1210" width="205" height="100" as="geometry" />
        </mxCell>
        <mxCell id="SqnKiE-Mk17VoA1t4yWk-1840" value="&lt;div&gt;化神&lt;/div&gt;剑气的效果翻倍，但在回合开始时会减少一半剑气" style="rounded=1;whiteSpace=wrap;html=1;shadow=0;labelBackgroundColor=none;strokeColor=#2D7600;strokeWidth=3;fillColor=#60a917;fontFamily=Helvetica;fontSize=14;fontColor=#ffffff;align=center;spacing=5;arcSize=7;perimeterSpacing=2;" vertex="1" parent="1">
          <mxGeometry x="2350" y="-1210" width="205" height="100" as="geometry" />
        </mxCell>
        <mxCell id="SqnKiE-Mk17VoA1t4yWk-1874" value="" style="edgeStyle=none;shape=connector;rounded=0;orthogonalLoop=1;jettySize=auto;html=1;strokeColor=#ffffff;strokeWidth=4;align=center;verticalAlign=middle;fontFamily=Helvetica;fontSize=11;fontColor=default;labelBackgroundColor=default;endArrow=classic;" edge="1" parent="1" source="SqnKiE-Mk17VoA1t4yWk-1870" target="SqnKiE-Mk17VoA1t4yWk-1871">
          <mxGeometry relative="1" as="geometry" />
        </mxCell>
        <mxCell id="SqnKiE-Mk17VoA1t4yWk-1870" value="属性点" style="rounded=1;whiteSpace=wrap;html=1;shadow=0;labelBackgroundColor=none;strokeColor=none;strokeWidth=3;fillColor=#f5af58;fontFamily=Helvetica;fontSize=14;fontColor=#FFFFFF;align=center;spacing=5;arcSize=7;perimeterSpacing=2;" vertex="1" parent="1">
          <mxGeometry x="505" y="-300" width="150" height="60" as="geometry" />
        </mxCell>
        <mxCell id="SqnKiE-Mk17VoA1t4yWk-1871" value="属性点" style="rounded=1;whiteSpace=wrap;html=1;shadow=0;labelBackgroundColor=none;strokeColor=none;strokeWidth=3;fillColor=#f5af58;fontFamily=Helvetica;fontSize=14;fontColor=#FFFFFF;align=center;spacing=5;arcSize=7;perimeterSpacing=2;" vertex="1" parent="1">
          <mxGeometry x="505" y="-400" width="150" height="60" as="geometry" />
        </mxCell>
        <mxCell id="SqnKiE-Mk17VoA1t4yWk-2090" style="edgeStyle=none;shape=connector;rounded=0;orthogonalLoop=1;jettySize=auto;html=1;strokeColor=#ffffff;strokeWidth=4;align=center;verticalAlign=middle;fontFamily=Helvetica;fontSize=11;fontColor=default;labelBackgroundColor=default;endArrow=classic;" edge="1" parent="1" source="SqnKiE-Mk17VoA1t4yWk-1882" target="SqnKiE-Mk17VoA1t4yWk-2032">
          <mxGeometry relative="1" as="geometry" />
        </mxCell>
        <mxCell id="SqnKiE-Mk17VoA1t4yWk-1882" value="获得的防御+5" style="rounded=1;whiteSpace=wrap;html=1;shadow=0;labelBackgroundColor=none;strokeColor=none;strokeWidth=3;fillColor=#f5af58;fontFamily=Helvetica;fontSize=14;fontColor=#FFFFFF;align=center;spacing=5;arcSize=7;perimeterSpacing=2;" vertex="1" parent="1">
          <mxGeometry x="200" y="-60" width="150" height="60" as="geometry" />
        </mxCell>
        <mxCell id="SqnKiE-Mk17VoA1t4yWk-1886" value="" style="edgeStyle=none;shape=connector;rounded=0;orthogonalLoop=1;jettySize=auto;html=1;strokeColor=#ffffff;strokeWidth=4;align=center;verticalAlign=middle;fontFamily=Helvetica;fontSize=11;fontColor=default;labelBackgroundColor=default;endArrow=classic;" edge="1" parent="1" source="SqnKiE-Mk17VoA1t4yWk-1885" target="SqnKiE-Mk17VoA1t4yWk-1784">
          <mxGeometry relative="1" as="geometry" />
        </mxCell>
        <mxCell id="SqnKiE-Mk17VoA1t4yWk-1885" value="武器伤害增加3" style="rounded=1;whiteSpace=wrap;html=1;shadow=0;labelBackgroundColor=none;strokeColor=none;strokeWidth=3;fillColor=#f5af58;fontFamily=Helvetica;fontSize=14;fontColor=#FFFFFF;align=center;spacing=5;arcSize=7;perimeterSpacing=2;" vertex="1" parent="1">
          <mxGeometry x="892.5" y="-40" width="150" height="60" as="geometry" />
        </mxCell>
        <mxCell id="SqnKiE-Mk17VoA1t4yWk-2019" value="" style="edgeStyle=none;shape=connector;rounded=0;orthogonalLoop=1;jettySize=auto;html=1;strokeColor=#ffffff;strokeWidth=4;align=center;verticalAlign=middle;fontFamily=Helvetica;fontSize=11;fontColor=default;labelBackgroundColor=default;endArrow=classic;" edge="1" parent="1" source="SqnKiE-Mk17VoA1t4yWk-1899" target="SqnKiE-Mk17VoA1t4yWk-1900">
          <mxGeometry relative="1" as="geometry" />
        </mxCell>
        <mxCell id="SqnKiE-Mk17VoA1t4yWk-1899" value="属性点" style="rounded=1;whiteSpace=wrap;html=1;shadow=0;labelBackgroundColor=none;strokeColor=none;strokeWidth=3;fillColor=#f5af58;fontFamily=Helvetica;fontSize=14;fontColor=#FFFFFF;align=center;spacing=5;arcSize=7;perimeterSpacing=2;" vertex="1" parent="1">
          <mxGeometry x="-110" y="-970" width="150" height="60" as="geometry" />
        </mxCell>
        <mxCell id="SqnKiE-Mk17VoA1t4yWk-2020" value="" style="edgeStyle=none;shape=connector;rounded=0;orthogonalLoop=1;jettySize=auto;html=1;strokeColor=#ffffff;strokeWidth=4;align=center;verticalAlign=middle;fontFamily=Helvetica;fontSize=11;fontColor=default;labelBackgroundColor=default;endArrow=classic;" edge="1" parent="1" source="SqnKiE-Mk17VoA1t4yWk-1900" target="SqnKiE-Mk17VoA1t4yWk-1839">
          <mxGeometry relative="1" as="geometry" />
        </mxCell>
        <mxCell id="SqnKiE-Mk17VoA1t4yWk-1900" value="属性点" style="rounded=1;whiteSpace=wrap;html=1;shadow=0;labelBackgroundColor=none;strokeColor=none;strokeWidth=3;fillColor=#f5af58;fontFamily=Helvetica;fontSize=14;fontColor=#FFFFFF;align=center;spacing=5;arcSize=7;perimeterSpacing=2;" vertex="1" parent="1">
          <mxGeometry x="-110" y="-1080" width="150" height="60" as="geometry" />
        </mxCell>
        <mxCell id="SqnKiE-Mk17VoA1t4yWk-1964" value="" style="edgeStyle=none;shape=connector;rounded=0;orthogonalLoop=1;jettySize=auto;html=1;strokeColor=#ffffff;strokeWidth=4;align=center;verticalAlign=middle;fontFamily=Helvetica;fontSize=11;fontColor=default;labelBackgroundColor=default;endArrow=classic;" edge="1" parent="1" source="SqnKiE-Mk17VoA1t4yWk-1902" target="SqnKiE-Mk17VoA1t4yWk-1957">
          <mxGeometry relative="1" as="geometry" />
        </mxCell>
        <mxCell id="SqnKiE-Mk17VoA1t4yWk-1902" value="属性点" style="rounded=1;whiteSpace=wrap;html=1;shadow=0;labelBackgroundColor=none;strokeColor=none;strokeWidth=3;fillColor=#f5af58;fontFamily=Helvetica;fontSize=14;fontColor=#FFFFFF;align=center;spacing=5;arcSize=7;perimeterSpacing=2;" vertex="1" parent="1">
          <mxGeometry x="505" y="-970" width="150" height="60" as="geometry" />
        </mxCell>
        <mxCell id="SqnKiE-Mk17VoA1t4yWk-2015" value="" style="edgeStyle=none;shape=connector;rounded=0;orthogonalLoop=1;jettySize=auto;html=1;strokeColor=#ffffff;strokeWidth=4;align=center;verticalAlign=middle;fontFamily=Helvetica;fontSize=11;fontColor=default;labelBackgroundColor=default;endArrow=classic;" edge="1" parent="1" source="SqnKiE-Mk17VoA1t4yWk-1905" target="SqnKiE-Mk17VoA1t4yWk-2014">
          <mxGeometry relative="1" as="geometry" />
        </mxCell>
        <mxCell id="SqnKiE-Mk17VoA1t4yWk-1905" value="结丹&lt;div&gt;战斗开始时获得 15 防御 =&amp;gt; 每次获得的防御+5&lt;/div&gt;" style="rounded=1;whiteSpace=wrap;html=1;shadow=0;labelBackgroundColor=none;strokeColor=#2D7600;strokeWidth=3;fillColor=#60a917;fontFamily=Helvetica;fontSize=14;fontColor=#ffffff;align=center;spacing=5;arcSize=7;perimeterSpacing=2;" vertex="1" parent="1">
          <mxGeometry x="-137.5" y="-520" width="205" height="100" as="geometry" />
        </mxCell>
        <mxCell id="SqnKiE-Mk17VoA1t4yWk-2000" value="" style="edgeStyle=none;shape=connector;rounded=0;orthogonalLoop=1;jettySize=auto;html=1;strokeColor=#ffffff;strokeWidth=4;align=center;verticalAlign=middle;fontFamily=Helvetica;fontSize=11;fontColor=default;labelBackgroundColor=default;endArrow=classic;" edge="1" parent="1" source="SqnKiE-Mk17VoA1t4yWk-1906" target="SqnKiE-Mk17VoA1t4yWk-1996">
          <mxGeometry relative="1" as="geometry" />
        </mxCell>
        <mxCell id="SqnKiE-Mk17VoA1t4yWk-1906" value="&lt;div&gt;结丹&lt;br&gt;&lt;/div&gt;战斗开始时获得 5 剑气 =&amp;gt; 每次获得的剑气+2" style="rounded=1;whiteSpace=wrap;html=1;shadow=0;labelBackgroundColor=none;strokeColor=#2D7600;strokeWidth=3;fillColor=#60a917;fontFamily=Helvetica;fontSize=14;fontColor=#ffffff;align=center;spacing=5;arcSize=7;perimeterSpacing=2;" vertex="1" parent="1">
          <mxGeometry x="1060" y="-520" width="205" height="100" as="geometry" />
        </mxCell>
        <mxCell id="SqnKiE-Mk17VoA1t4yWk-1963" value="" style="edgeStyle=none;shape=connector;rounded=0;orthogonalLoop=1;jettySize=auto;html=1;strokeColor=#ffffff;strokeWidth=4;align=center;verticalAlign=middle;fontFamily=Helvetica;fontSize=11;fontColor=default;labelBackgroundColor=default;endArrow=classic;" edge="1" parent="1" source="SqnKiE-Mk17VoA1t4yWk-1907" target="SqnKiE-Mk17VoA1t4yWk-1902">
          <mxGeometry relative="1" as="geometry" />
        </mxCell>
        <mxCell id="SqnKiE-Mk17VoA1t4yWk-1907" value="&lt;div&gt;元婴&lt;/div&gt;&lt;div&gt;再次行动的速度上限要求减 3&lt;/div&gt;" style="rounded=1;whiteSpace=wrap;html=1;shadow=0;labelBackgroundColor=none;strokeColor=#2D7600;strokeWidth=3;fillColor=#60a917;fontFamily=Helvetica;fontSize=14;fontColor=#ffffff;align=center;spacing=5;arcSize=7;perimeterSpacing=2;" vertex="1" parent="1">
          <mxGeometry x="482.5" y="-860" width="205" height="100" as="geometry" />
        </mxCell>
        <mxCell id="SqnKiE-Mk17VoA1t4yWk-1984" value="" style="edgeStyle=none;shape=connector;rounded=0;orthogonalLoop=1;jettySize=auto;html=1;strokeColor=#ffffff;strokeWidth=4;align=center;verticalAlign=middle;fontFamily=Helvetica;fontSize=11;fontColor=default;labelBackgroundColor=default;endArrow=classic;" edge="1" parent="1" source="SqnKiE-Mk17VoA1t4yWk-1909" target="SqnKiE-Mk17VoA1t4yWk-1960">
          <mxGeometry relative="1" as="geometry" />
        </mxCell>
        <mxCell id="SqnKiE-Mk17VoA1t4yWk-1909" value="&lt;div&gt;化神&lt;/div&gt;同一个回合可以无限制触发再次行动" style="rounded=1;whiteSpace=wrap;html=1;shadow=0;labelBackgroundColor=none;strokeColor=#2D7600;strokeWidth=3;fillColor=#60a917;fontFamily=Helvetica;fontSize=14;fontColor=#ffffff;align=center;spacing=5;arcSize=7;perimeterSpacing=2;" vertex="1" parent="1">
          <mxGeometry x="1070" y="-1210" width="205" height="100" as="geometry" />
        </mxCell>
        <mxCell id="SqnKiE-Mk17VoA1t4yWk-1916" value="Analysis" style="rounded=1;whiteSpace=wrap;html=1;shadow=0;labelBackgroundColor=none;strokeColor=#23445d;strokeWidth=3;fillColor=#bac8d3;fontFamily=Helvetica;fontSize=14;align=center;spacing=5;arcSize=7;perimeterSpacing=2;" vertex="1" parent="1">
          <mxGeometry x="304" y="930" width="150" height="60" as="geometry" />
        </mxCell>
        <mxCell id="SqnKiE-Mk17VoA1t4yWk-1919" value="Analysis" style="rounded=1;whiteSpace=wrap;html=1;shadow=0;labelBackgroundColor=none;strokeColor=#23445d;strokeWidth=3;fillColor=#bac8d3;fontFamily=Helvetica;fontSize=14;align=center;spacing=5;arcSize=7;perimeterSpacing=2;" vertex="1" parent="1">
          <mxGeometry x="-13.5" y="880" width="150" height="60" as="geometry" />
        </mxCell>
        <mxCell id="SqnKiE-Mk17VoA1t4yWk-2010" style="edgeStyle=none;shape=connector;rounded=0;orthogonalLoop=1;jettySize=auto;html=1;strokeColor=#ffffff;strokeWidth=4;align=center;verticalAlign=middle;fontFamily=Helvetica;fontSize=11;fontColor=default;labelBackgroundColor=default;endArrow=classic;" edge="1" parent="1" source="SqnKiE-Mk17VoA1t4yWk-1926" target="SqnKiE-Mk17VoA1t4yWk-1905">
          <mxGeometry relative="1" as="geometry" />
        </mxCell>
        <mxCell id="SqnKiE-Mk17VoA1t4yWk-1926" value="属性点" style="rounded=1;whiteSpace=wrap;html=1;shadow=0;labelBackgroundColor=none;strokeColor=none;strokeWidth=3;fillColor=#f5af58;fontFamily=Helvetica;fontSize=14;fontColor=#FFFFFF;align=center;spacing=5;arcSize=7;perimeterSpacing=2;" vertex="1" parent="1">
          <mxGeometry x="95" y="-400" width="150" height="60" as="geometry" />
        </mxCell>
        <mxCell id="SqnKiE-Mk17VoA1t4yWk-2011" style="edgeStyle=none;shape=connector;rounded=0;orthogonalLoop=1;jettySize=auto;html=1;strokeColor=#ffffff;strokeWidth=4;align=center;verticalAlign=middle;fontFamily=Helvetica;fontSize=11;fontColor=default;labelBackgroundColor=default;endArrow=classic;" edge="1" parent="1" source="SqnKiE-Mk17VoA1t4yWk-1927" target="SqnKiE-Mk17VoA1t4yWk-1926">
          <mxGeometry relative="1" as="geometry" />
        </mxCell>
        <mxCell id="SqnKiE-Mk17VoA1t4yWk-1927" value="属性点" style="rounded=1;whiteSpace=wrap;html=1;shadow=0;labelBackgroundColor=none;strokeColor=none;strokeWidth=3;fillColor=#f5af58;fontFamily=Helvetica;fontSize=14;fontColor=#FFFFFF;align=center;spacing=5;arcSize=7;perimeterSpacing=2;" vertex="1" parent="1">
          <mxGeometry x="286.5" y="-300" width="150" height="60" as="geometry" />
        </mxCell>
        <mxCell id="SqnKiE-Mk17VoA1t4yWk-1944" style="edgeStyle=none;shape=connector;rounded=0;orthogonalLoop=1;jettySize=auto;html=1;strokeColor=#ffffff;strokeWidth=4;align=center;verticalAlign=middle;fontFamily=Helvetica;fontSize=11;fontColor=default;labelBackgroundColor=default;endArrow=classic;" edge="1" parent="1" source="SqnKiE-Mk17VoA1t4yWk-1928" target="SqnKiE-Mk17VoA1t4yWk-1906">
          <mxGeometry relative="1" as="geometry" />
        </mxCell>
        <mxCell id="SqnKiE-Mk17VoA1t4yWk-1928" value="属性点" style="rounded=1;whiteSpace=wrap;html=1;shadow=0;labelBackgroundColor=none;strokeColor=none;strokeWidth=3;fillColor=#f5af58;fontFamily=Helvetica;fontSize=14;fontColor=#FFFFFF;align=center;spacing=5;arcSize=7;perimeterSpacing=2;" vertex="1" parent="1">
          <mxGeometry x="892.5" y="-360" width="150" height="60" as="geometry" />
        </mxCell>
        <mxCell id="SqnKiE-Mk17VoA1t4yWk-2027" value="" style="edgeStyle=none;shape=connector;rounded=0;orthogonalLoop=1;jettySize=auto;html=1;strokeColor=#ffffff;strokeWidth=4;align=center;verticalAlign=middle;fontFamily=Helvetica;fontSize=11;fontColor=default;labelBackgroundColor=default;endArrow=classic;" edge="1" parent="1" source="SqnKiE-Mk17VoA1t4yWk-1929" target="SqnKiE-Mk17VoA1t4yWk-1907">
          <mxGeometry relative="1" as="geometry" />
        </mxCell>
        <mxCell id="SqnKiE-Mk17VoA1t4yWk-1929" value="属性点" style="rounded=1;whiteSpace=wrap;html=1;shadow=0;labelBackgroundColor=none;strokeColor=none;strokeWidth=3;fillColor=#f5af58;fontFamily=Helvetica;fontSize=14;fontColor=#FFFFFF;align=center;spacing=5;arcSize=7;perimeterSpacing=2;" vertex="1" parent="1">
          <mxGeometry x="505" y="-720" width="150" height="60" as="geometry" />
        </mxCell>
        <mxCell id="SqnKiE-Mk17VoA1t4yWk-1930" value="属性点" style="rounded=1;whiteSpace=wrap;html=1;shadow=0;labelBackgroundColor=none;strokeColor=none;strokeWidth=3;fillColor=#f5af58;fontFamily=Helvetica;fontSize=14;fontColor=#FFFFFF;align=center;spacing=5;arcSize=7;perimeterSpacing=2;" vertex="1" parent="1">
          <mxGeometry x="95" y="-610" width="150" height="60" as="geometry" />
        </mxCell>
        <mxCell id="SqnKiE-Mk17VoA1t4yWk-1931" value="属性点" style="rounded=1;whiteSpace=wrap;html=1;shadow=0;labelBackgroundColor=none;strokeColor=none;strokeWidth=3;fillColor=#f5af58;fontFamily=Helvetica;fontSize=14;fontColor=#FFFFFF;align=center;spacing=5;arcSize=7;perimeterSpacing=2;" vertex="1" parent="1">
          <mxGeometry x="286.5" y="-720" width="150" height="60" as="geometry" />
        </mxCell>
        <mxCell id="SqnKiE-Mk17VoA1t4yWk-2026" value="" style="edgeStyle=none;shape=connector;rounded=0;orthogonalLoop=1;jettySize=auto;html=1;strokeColor=#ffffff;strokeWidth=4;align=center;verticalAlign=middle;fontFamily=Helvetica;fontSize=11;fontColor=default;labelBackgroundColor=default;endArrow=classic;" edge="1" parent="1" source="SqnKiE-Mk17VoA1t4yWk-1932" target="SqnKiE-Mk17VoA1t4yWk-1929">
          <mxGeometry relative="1" as="geometry" />
        </mxCell>
        <mxCell id="SqnKiE-Mk17VoA1t4yWk-1932" value="属性点" style="rounded=1;whiteSpace=wrap;html=1;shadow=0;labelBackgroundColor=none;strokeColor=none;strokeWidth=3;fillColor=#f5af58;fontFamily=Helvetica;fontSize=14;fontColor=#FFFFFF;align=center;spacing=5;arcSize=7;perimeterSpacing=2;" vertex="1" parent="1">
          <mxGeometry x="505" y="-610" width="150" height="60" as="geometry" />
        </mxCell>
        <mxCell id="SqnKiE-Mk17VoA1t4yWk-2012" style="edgeStyle=none;shape=connector;rounded=0;orthogonalLoop=1;jettySize=auto;html=1;strokeColor=#ffffff;strokeWidth=4;align=center;verticalAlign=middle;fontFamily=Helvetica;fontSize=11;fontColor=default;labelBackgroundColor=default;endArrow=classic;" edge="1" parent="1" source="SqnKiE-Mk17VoA1t4yWk-1933" target="SqnKiE-Mk17VoA1t4yWk-1928">
          <mxGeometry relative="1" as="geometry" />
        </mxCell>
        <mxCell id="SqnKiE-Mk17VoA1t4yWk-1933" value="属性点" style="rounded=1;whiteSpace=wrap;html=1;shadow=0;labelBackgroundColor=none;strokeColor=none;strokeWidth=3;fillColor=#f5af58;fontFamily=Helvetica;fontSize=14;fontColor=#FFFFFF;align=center;spacing=5;arcSize=7;perimeterSpacing=2;" vertex="1" parent="1">
          <mxGeometry x="710" y="-300" width="150" height="60" as="geometry" />
        </mxCell>
        <mxCell id="SqnKiE-Mk17VoA1t4yWk-2025" value="" style="edgeStyle=none;shape=connector;rounded=0;orthogonalLoop=1;jettySize=auto;html=1;strokeColor=#ffffff;strokeWidth=4;align=center;verticalAlign=middle;fontFamily=Helvetica;fontSize=11;fontColor=default;labelBackgroundColor=default;endArrow=classic;" edge="1" parent="1" source="SqnKiE-Mk17VoA1t4yWk-1934" target="SqnKiE-Mk17VoA1t4yWk-1932">
          <mxGeometry relative="1" as="geometry" />
        </mxCell>
        <mxCell id="SqnKiE-Mk17VoA1t4yWk-1934" value="属性点" style="rounded=1;whiteSpace=wrap;html=1;shadow=0;labelBackgroundColor=none;strokeColor=none;strokeWidth=3;fillColor=#f5af58;fontFamily=Helvetica;fontSize=14;fontColor=#FFFFFF;align=center;spacing=5;arcSize=7;perimeterSpacing=2;" vertex="1" parent="1">
          <mxGeometry x="505" y="-500" width="150" height="60" as="geometry" />
        </mxCell>
        <mxCell id="SqnKiE-Mk17VoA1t4yWk-1935" value="属性点" style="rounded=1;whiteSpace=wrap;html=1;shadow=0;labelBackgroundColor=none;strokeColor=none;strokeWidth=3;fillColor=#f5af58;fontFamily=Helvetica;fontSize=14;fontColor=#FFFFFF;align=center;spacing=5;arcSize=7;perimeterSpacing=2;" vertex="1" parent="1">
          <mxGeometry x="710" y="-710" width="150" height="60" as="geometry" />
        </mxCell>
        <mxCell id="SqnKiE-Mk17VoA1t4yWk-1936" value="属性点" style="rounded=1;whiteSpace=wrap;html=1;shadow=0;labelBackgroundColor=none;strokeColor=none;strokeWidth=3;fillColor=#f5af58;fontFamily=Helvetica;fontSize=14;fontColor=#FFFFFF;align=center;spacing=5;arcSize=7;perimeterSpacing=2;" vertex="1" parent="1">
          <mxGeometry x="890" y="-610" width="150" height="60" as="geometry" />
        </mxCell>
        <mxCell id="SqnKiE-Mk17VoA1t4yWk-1943" style="edgeStyle=none;shape=connector;rounded=0;orthogonalLoop=1;jettySize=auto;html=1;strokeColor=#ffffff;strokeWidth=4;align=center;verticalAlign=middle;fontFamily=Helvetica;fontSize=11;fontColor=default;labelBackgroundColor=default;endArrow=classic;" edge="1" parent="1" source="SqnKiE-Mk17VoA1t4yWk-1938" target="SqnKiE-Mk17VoA1t4yWk-1906">
          <mxGeometry relative="1" as="geometry" />
        </mxCell>
        <mxCell id="SqnKiE-Mk17VoA1t4yWk-1938" value="属性点" style="rounded=1;whiteSpace=wrap;html=1;shadow=0;labelBackgroundColor=none;strokeColor=none;strokeWidth=3;fillColor=#f5af58;fontFamily=Helvetica;fontSize=14;fontColor=#FFFFFF;align=center;spacing=5;arcSize=7;perimeterSpacing=2;" vertex="1" parent="1">
          <mxGeometry x="1080" y="-380" width="150" height="60" as="geometry" />
        </mxCell>
        <mxCell id="SqnKiE-Mk17VoA1t4yWk-1942" style="edgeStyle=none;shape=connector;rounded=0;orthogonalLoop=1;jettySize=auto;html=1;strokeColor=#ffffff;strokeWidth=4;align=center;verticalAlign=middle;fontFamily=Helvetica;fontSize=11;fontColor=default;labelBackgroundColor=default;endArrow=classic;" edge="1" parent="1" source="SqnKiE-Mk17VoA1t4yWk-1939" target="SqnKiE-Mk17VoA1t4yWk-1938">
          <mxGeometry relative="1" as="geometry" />
        </mxCell>
        <mxCell id="SqnKiE-Mk17VoA1t4yWk-1939" value="属性点" style="rounded=1;whiteSpace=wrap;html=1;shadow=0;labelBackgroundColor=none;strokeColor=none;strokeWidth=3;fillColor=#f5af58;fontFamily=Helvetica;fontSize=14;fontColor=#FFFFFF;align=center;spacing=5;arcSize=7;perimeterSpacing=2;" vertex="1" parent="1">
          <mxGeometry x="1080" y="-270" width="150" height="60" as="geometry" />
        </mxCell>
        <mxCell id="SqnKiE-Mk17VoA1t4yWk-1945" value="属性点" style="rounded=1;whiteSpace=wrap;html=1;shadow=0;labelBackgroundColor=none;strokeColor=none;strokeWidth=3;fillColor=#f5af58;fontFamily=Helvetica;fontSize=14;fontColor=#FFFFFF;align=center;spacing=5;arcSize=7;perimeterSpacing=2;" vertex="1" parent="1">
          <mxGeometry x="1320" y="-270" width="150" height="60" as="geometry" />
        </mxCell>
        <mxCell id="SqnKiE-Mk17VoA1t4yWk-1946" value="属性点" style="rounded=1;whiteSpace=wrap;html=1;shadow=0;labelBackgroundColor=none;strokeColor=none;strokeWidth=3;fillColor=#f5af58;fontFamily=Helvetica;fontSize=14;fontColor=#FFFFFF;align=center;spacing=5;arcSize=7;perimeterSpacing=2;" vertex="1" parent="1">
          <mxGeometry x="1540" y="-380" width="150" height="60" as="geometry" />
        </mxCell>
        <mxCell id="SqnKiE-Mk17VoA1t4yWk-1949" style="edgeStyle=none;shape=connector;rounded=0;orthogonalLoop=1;jettySize=auto;html=1;strokeColor=#ffffff;strokeWidth=4;align=center;verticalAlign=middle;fontFamily=Helvetica;fontSize=11;fontColor=default;labelBackgroundColor=default;endArrow=classic;" edge="1" parent="1" source="SqnKiE-Mk17VoA1t4yWk-1947" target="SqnKiE-Mk17VoA1t4yWk-1906">
          <mxGeometry relative="1" as="geometry" />
        </mxCell>
        <mxCell id="SqnKiE-Mk17VoA1t4yWk-1947" value="属性点" style="rounded=1;whiteSpace=wrap;html=1;shadow=0;labelBackgroundColor=none;strokeColor=none;strokeWidth=3;fillColor=#f5af58;fontFamily=Helvetica;fontSize=14;fontColor=#FFFFFF;align=center;spacing=5;arcSize=7;perimeterSpacing=2;" vertex="1" parent="1">
          <mxGeometry x="1757.5" y="-500" width="150" height="60" as="geometry" />
        </mxCell>
        <mxCell id="SqnKiE-Mk17VoA1t4yWk-1948" value="属性点" style="rounded=1;whiteSpace=wrap;html=1;shadow=0;labelBackgroundColor=none;strokeColor=none;strokeWidth=3;fillColor=#f5af58;fontFamily=Helvetica;fontSize=14;fontColor=#FFFFFF;align=center;spacing=5;arcSize=7;perimeterSpacing=2;" vertex="1" parent="1">
          <mxGeometry x="1757.5" y="-710" width="150" height="60" as="geometry" />
        </mxCell>
        <mxCell id="SqnKiE-Mk17VoA1t4yWk-1952" value="属性点" style="rounded=1;whiteSpace=wrap;html=1;shadow=0;labelBackgroundColor=none;strokeColor=none;strokeWidth=3;fillColor=#f5af58;fontFamily=Helvetica;fontSize=14;fontColor=#FFFFFF;align=center;spacing=5;arcSize=7;perimeterSpacing=2;" vertex="1" parent="1">
          <mxGeometry x="1757.5" y="-610" width="150" height="60" as="geometry" />
        </mxCell>
        <mxCell id="SqnKiE-Mk17VoA1t4yWk-1954" value="属性点" style="rounded=1;whiteSpace=wrap;html=1;shadow=0;labelBackgroundColor=none;strokeColor=none;strokeWidth=3;fillColor=#f5af58;fontFamily=Helvetica;fontSize=14;fontColor=#FFFFFF;align=center;spacing=5;arcSize=7;perimeterSpacing=2;" vertex="1" parent="1">
          <mxGeometry x="1980" y="-610" width="150" height="60" as="geometry" />
        </mxCell>
        <mxCell id="SqnKiE-Mk17VoA1t4yWk-1965" value="" style="edgeStyle=none;shape=connector;rounded=0;orthogonalLoop=1;jettySize=auto;html=1;strokeColor=#ffffff;strokeWidth=4;align=center;verticalAlign=middle;fontFamily=Helvetica;fontSize=11;fontColor=default;labelBackgroundColor=default;endArrow=classic;" edge="1" parent="1" source="SqnKiE-Mk17VoA1t4yWk-1957" target="SqnKiE-Mk17VoA1t4yWk-1958">
          <mxGeometry relative="1" as="geometry" />
        </mxCell>
        <mxCell id="SqnKiE-Mk17VoA1t4yWk-1957" value="属性点" style="rounded=1;whiteSpace=wrap;html=1;shadow=0;labelBackgroundColor=none;strokeColor=none;strokeWidth=3;fillColor=#f5af58;fontFamily=Helvetica;fontSize=14;fontColor=#FFFFFF;align=center;spacing=5;arcSize=7;perimeterSpacing=2;" vertex="1" parent="1">
          <mxGeometry x="505" y="-1080" width="150" height="60" as="geometry" />
        </mxCell>
        <mxCell id="SqnKiE-Mk17VoA1t4yWk-1958" value="属性点" style="rounded=1;whiteSpace=wrap;html=1;shadow=0;labelBackgroundColor=none;strokeColor=none;strokeWidth=3;fillColor=#f5af58;fontFamily=Helvetica;fontSize=14;fontColor=#FFFFFF;align=center;spacing=5;arcSize=7;perimeterSpacing=2;" vertex="1" parent="1">
          <mxGeometry x="505" y="-1190" width="150" height="60" as="geometry" />
        </mxCell>
        <mxCell id="SqnKiE-Mk17VoA1t4yWk-1986" value="" style="edgeStyle=none;shape=connector;rounded=0;orthogonalLoop=1;jettySize=auto;html=1;strokeColor=#ffffff;strokeWidth=4;align=center;verticalAlign=middle;fontFamily=Helvetica;fontSize=11;fontColor=default;labelBackgroundColor=default;endArrow=classic;" edge="1" parent="1" source="SqnKiE-Mk17VoA1t4yWk-1959" target="SqnKiE-Mk17VoA1t4yWk-1958">
          <mxGeometry relative="1" as="geometry" />
        </mxCell>
        <mxCell id="SqnKiE-Mk17VoA1t4yWk-1959" value="属性点" style="rounded=1;whiteSpace=wrap;html=1;shadow=0;labelBackgroundColor=none;strokeColor=none;strokeWidth=3;fillColor=#f5af58;fontFamily=Helvetica;fontSize=14;fontColor=#FFFFFF;align=center;spacing=5;arcSize=7;perimeterSpacing=2;" vertex="1" parent="1">
          <mxGeometry x="710" y="-1190" width="150" height="60" as="geometry" />
        </mxCell>
        <mxCell id="SqnKiE-Mk17VoA1t4yWk-1985" value="" style="edgeStyle=none;shape=connector;rounded=0;orthogonalLoop=1;jettySize=auto;html=1;strokeColor=#ffffff;strokeWidth=4;align=center;verticalAlign=middle;fontFamily=Helvetica;fontSize=11;fontColor=default;labelBackgroundColor=default;endArrow=classic;" edge="1" parent="1" source="SqnKiE-Mk17VoA1t4yWk-1960" target="SqnKiE-Mk17VoA1t4yWk-1959">
          <mxGeometry relative="1" as="geometry" />
        </mxCell>
        <mxCell id="SqnKiE-Mk17VoA1t4yWk-1960" value="属性点" style="rounded=1;whiteSpace=wrap;html=1;shadow=0;labelBackgroundColor=none;strokeColor=none;strokeWidth=3;fillColor=#f5af58;fontFamily=Helvetica;fontSize=14;fontColor=#FFFFFF;align=center;spacing=5;arcSize=7;perimeterSpacing=2;" vertex="1" parent="1">
          <mxGeometry x="890" y="-1190" width="150" height="60" as="geometry" />
        </mxCell>
        <mxCell id="SqnKiE-Mk17VoA1t4yWk-1987" value="" style="edgeStyle=none;shape=connector;rounded=0;orthogonalLoop=1;jettySize=auto;html=1;strokeColor=#ffffff;strokeWidth=4;align=center;verticalAlign=middle;fontFamily=Helvetica;fontSize=11;fontColor=default;labelBackgroundColor=default;endArrow=classic;" edge="1" parent="1" source="SqnKiE-Mk17VoA1t4yWk-1961" target="SqnKiE-Mk17VoA1t4yWk-1958">
          <mxGeometry relative="1" as="geometry" />
        </mxCell>
        <mxCell id="SqnKiE-Mk17VoA1t4yWk-1961" value="属性点" style="rounded=1;whiteSpace=wrap;html=1;shadow=0;labelBackgroundColor=none;strokeColor=none;strokeWidth=3;fillColor=#f5af58;fontFamily=Helvetica;fontSize=14;fontColor=#FFFFFF;align=center;spacing=5;arcSize=7;perimeterSpacing=2;" vertex="1" parent="1">
          <mxGeometry x="304" y="-1190" width="150" height="60" as="geometry" />
        </mxCell>
        <mxCell id="SqnKiE-Mk17VoA1t4yWk-1988" value="" style="edgeStyle=none;shape=connector;rounded=0;orthogonalLoop=1;jettySize=auto;html=1;strokeColor=#ffffff;strokeWidth=4;align=center;verticalAlign=middle;fontFamily=Helvetica;fontSize=11;fontColor=default;labelBackgroundColor=default;endArrow=classic;" edge="1" parent="1" source="SqnKiE-Mk17VoA1t4yWk-1962" target="SqnKiE-Mk17VoA1t4yWk-1961">
          <mxGeometry relative="1" as="geometry" />
        </mxCell>
        <mxCell id="SqnKiE-Mk17VoA1t4yWk-1962" value="属性点" style="rounded=1;whiteSpace=wrap;html=1;shadow=0;labelBackgroundColor=none;strokeColor=none;strokeWidth=3;fillColor=#f5af58;fontFamily=Helvetica;fontSize=14;fontColor=#FFFFFF;align=center;spacing=5;arcSize=7;perimeterSpacing=2;" vertex="1" parent="1">
          <mxGeometry x="95" y="-1190" width="150" height="60" as="geometry" />
        </mxCell>
        <mxCell id="SqnKiE-Mk17VoA1t4yWk-1966" value="获得的防御+5" style="rounded=1;whiteSpace=wrap;html=1;shadow=0;labelBackgroundColor=none;strokeColor=none;strokeWidth=3;fillColor=#f5af58;fontFamily=Helvetica;fontSize=14;fontColor=#FFFFFF;align=center;spacing=5;arcSize=7;perimeterSpacing=2;" vertex="1" parent="1">
          <mxGeometry x="-300" y="-300" width="150" height="60" as="geometry" />
        </mxCell>
        <mxCell id="SqnKiE-Mk17VoA1t4yWk-1967" value="获得的防御+5" style="rounded=1;whiteSpace=wrap;html=1;shadow=0;labelBackgroundColor=none;strokeColor=none;strokeWidth=3;fillColor=#f5af58;fontFamily=Helvetica;fontSize=14;fontColor=#FFFFFF;align=center;spacing=5;arcSize=7;perimeterSpacing=2;" vertex="1" parent="1">
          <mxGeometry x="-490" y="-840" width="150" height="60" as="geometry" />
        </mxCell>
        <mxCell id="SqnKiE-Mk17VoA1t4yWk-1968" value="获得的防御+5" style="rounded=1;whiteSpace=wrap;html=1;shadow=0;labelBackgroundColor=none;strokeColor=none;strokeWidth=3;fillColor=#f5af58;fontFamily=Helvetica;fontSize=14;fontColor=#FFFFFF;align=center;spacing=5;arcSize=7;perimeterSpacing=2;" vertex="1" parent="1">
          <mxGeometry x="-702.5" y="-500" width="150" height="60" as="geometry" />
        </mxCell>
        <mxCell id="SqnKiE-Mk17VoA1t4yWk-1971" value="属性点" style="rounded=1;whiteSpace=wrap;html=1;shadow=0;labelBackgroundColor=none;strokeColor=none;strokeWidth=3;fillColor=#f5af58;fontFamily=Helvetica;fontSize=14;fontColor=#FFFFFF;align=center;spacing=5;arcSize=7;perimeterSpacing=2;" vertex="1" parent="1">
          <mxGeometry x="2180" y="-710" width="150" height="60" as="geometry" />
        </mxCell>
        <mxCell id="SqnKiE-Mk17VoA1t4yWk-1972" value="属性点" style="rounded=1;whiteSpace=wrap;html=1;shadow=0;labelBackgroundColor=none;strokeColor=none;strokeWidth=3;fillColor=#f5af58;fontFamily=Helvetica;fontSize=14;fontColor=#FFFFFF;align=center;spacing=5;arcSize=7;perimeterSpacing=2;" vertex="1" parent="1">
          <mxGeometry x="2377.5" y="-960" width="150" height="60" as="geometry" />
        </mxCell>
        <mxCell id="SqnKiE-Mk17VoA1t4yWk-1973" value="属性点" style="rounded=1;whiteSpace=wrap;html=1;shadow=0;labelBackgroundColor=none;strokeColor=none;strokeWidth=3;fillColor=#f5af58;fontFamily=Helvetica;fontSize=14;fontColor=#FFFFFF;align=center;spacing=5;arcSize=7;perimeterSpacing=2;" vertex="1" parent="1">
          <mxGeometry x="1320" y="-1070" width="150" height="60" as="geometry" />
        </mxCell>
        <mxCell id="SqnKiE-Mk17VoA1t4yWk-1974" value="属性点" style="rounded=1;whiteSpace=wrap;html=1;shadow=0;labelBackgroundColor=none;strokeColor=none;strokeWidth=3;fillColor=#f5af58;fontFamily=Helvetica;fontSize=14;fontColor=#FFFFFF;align=center;spacing=5;arcSize=7;perimeterSpacing=2;" vertex="1" parent="1">
          <mxGeometry x="1530" y="-970" width="150" height="60" as="geometry" />
        </mxCell>
        <mxCell id="SqnKiE-Mk17VoA1t4yWk-1975" style="edgeStyle=none;shape=connector;rounded=0;orthogonalLoop=1;jettySize=auto;html=1;exitX=0.5;exitY=0;exitDx=0;exitDy=0;strokeColor=#ffffff;strokeWidth=4;align=center;verticalAlign=middle;fontFamily=Helvetica;fontSize=11;fontColor=default;labelBackgroundColor=default;endArrow=classic;" edge="1" parent="1" source="SqnKiE-Mk17VoA1t4yWk-1948" target="SqnKiE-Mk17VoA1t4yWk-1948">
          <mxGeometry relative="1" as="geometry" />
        </mxCell>
        <mxCell id="SqnKiE-Mk17VoA1t4yWk-1981" value="" style="edgeStyle=none;shape=connector;rounded=0;orthogonalLoop=1;jettySize=auto;html=1;strokeColor=#ffffff;strokeWidth=4;align=center;verticalAlign=middle;fontFamily=Helvetica;fontSize=11;fontColor=default;labelBackgroundColor=default;endArrow=classic;" edge="1" parent="1" source="SqnKiE-Mk17VoA1t4yWk-1978" target="SqnKiE-Mk17VoA1t4yWk-1979">
          <mxGeometry relative="1" as="geometry" />
        </mxCell>
        <mxCell id="SqnKiE-Mk17VoA1t4yWk-1978" value="属性点" style="rounded=1;whiteSpace=wrap;html=1;shadow=0;labelBackgroundColor=none;strokeColor=none;strokeWidth=3;fillColor=#f5af58;fontFamily=Helvetica;fontSize=14;fontColor=#FFFFFF;align=center;spacing=5;arcSize=7;perimeterSpacing=2;" vertex="1" parent="1">
          <mxGeometry x="1087.5" y="-840" width="150" height="60" as="geometry" />
        </mxCell>
        <mxCell id="SqnKiE-Mk17VoA1t4yWk-1982" value="" style="edgeStyle=none;shape=connector;rounded=0;orthogonalLoop=1;jettySize=auto;html=1;strokeColor=#ffffff;strokeWidth=4;align=center;verticalAlign=middle;fontFamily=Helvetica;fontSize=11;fontColor=default;labelBackgroundColor=default;endArrow=classic;" edge="1" parent="1" source="SqnKiE-Mk17VoA1t4yWk-1979" target="SqnKiE-Mk17VoA1t4yWk-1980">
          <mxGeometry relative="1" as="geometry" />
        </mxCell>
        <mxCell id="SqnKiE-Mk17VoA1t4yWk-1979" value="属性点" style="rounded=1;whiteSpace=wrap;html=1;shadow=0;labelBackgroundColor=none;strokeColor=none;strokeWidth=3;fillColor=#f5af58;fontFamily=Helvetica;fontSize=14;fontColor=#FFFFFF;align=center;spacing=5;arcSize=7;perimeterSpacing=2;" vertex="1" parent="1">
          <mxGeometry x="1087.5" y="-970" width="150" height="60" as="geometry" />
        </mxCell>
        <mxCell id="SqnKiE-Mk17VoA1t4yWk-1983" value="" style="edgeStyle=none;shape=connector;rounded=0;orthogonalLoop=1;jettySize=auto;html=1;strokeColor=#ffffff;strokeWidth=4;align=center;verticalAlign=middle;fontFamily=Helvetica;fontSize=11;fontColor=default;labelBackgroundColor=default;endArrow=classic;" edge="1" parent="1" source="SqnKiE-Mk17VoA1t4yWk-1980" target="SqnKiE-Mk17VoA1t4yWk-1909">
          <mxGeometry relative="1" as="geometry" />
        </mxCell>
        <mxCell id="SqnKiE-Mk17VoA1t4yWk-1980" value="属性点" style="rounded=1;whiteSpace=wrap;html=1;shadow=0;labelBackgroundColor=none;strokeColor=none;strokeWidth=3;fillColor=#f5af58;fontFamily=Helvetica;fontSize=14;fontColor=#FFFFFF;align=center;spacing=5;arcSize=7;perimeterSpacing=2;" vertex="1" parent="1">
          <mxGeometry x="1087.5" y="-1070" width="150" height="60" as="geometry" />
        </mxCell>
        <mxCell id="SqnKiE-Mk17VoA1t4yWk-2018" value="" style="edgeStyle=none;shape=connector;rounded=0;orthogonalLoop=1;jettySize=auto;html=1;strokeColor=#ffffff;strokeWidth=4;align=center;verticalAlign=middle;fontFamily=Helvetica;fontSize=11;fontColor=default;labelBackgroundColor=default;endArrow=classic;" edge="1" parent="1" source="SqnKiE-Mk17VoA1t4yWk-1991" target="SqnKiE-Mk17VoA1t4yWk-1899">
          <mxGeometry relative="1" as="geometry" />
        </mxCell>
        <mxCell id="SqnKiE-Mk17VoA1t4yWk-1991" value="属性点" style="rounded=1;whiteSpace=wrap;html=1;shadow=0;labelBackgroundColor=none;strokeColor=none;strokeWidth=3;fillColor=#f5af58;fontFamily=Helvetica;fontSize=14;fontColor=#FFFFFF;align=center;spacing=5;arcSize=7;perimeterSpacing=2;" vertex="1" parent="1">
          <mxGeometry x="-110" y="-840" width="150" height="60" as="geometry" />
        </mxCell>
        <mxCell id="SqnKiE-Mk17VoA1t4yWk-1992" value="属性点" style="rounded=1;whiteSpace=wrap;html=1;shadow=0;labelBackgroundColor=none;strokeColor=none;strokeWidth=3;fillColor=#f5af58;fontFamily=Helvetica;fontSize=14;fontColor=#FFFFFF;align=center;spacing=5;arcSize=7;perimeterSpacing=2;" vertex="1" parent="1">
          <mxGeometry x="-320" y="-1190" width="150" height="60" as="geometry" />
        </mxCell>
        <mxCell id="SqnKiE-Mk17VoA1t4yWk-1993" value="属性点" style="rounded=1;whiteSpace=wrap;html=1;shadow=0;labelBackgroundColor=none;strokeColor=none;strokeWidth=3;fillColor=#f5af58;fontFamily=Helvetica;fontSize=14;fontColor=#FFFFFF;align=center;spacing=5;arcSize=7;perimeterSpacing=2;" vertex="1" parent="1">
          <mxGeometry x="1980" y="-960" width="150" height="60" as="geometry" />
        </mxCell>
        <mxCell id="SqnKiE-Mk17VoA1t4yWk-1994" value="属性点" style="rounded=1;whiteSpace=wrap;html=1;shadow=0;labelBackgroundColor=none;strokeColor=none;strokeWidth=3;fillColor=#f5af58;fontFamily=Helvetica;fontSize=14;fontColor=#FFFFFF;align=center;spacing=5;arcSize=7;perimeterSpacing=2;" vertex="1" parent="1">
          <mxGeometry x="1320" y="-840" width="150" height="60" as="geometry" />
        </mxCell>
        <mxCell id="SqnKiE-Mk17VoA1t4yWk-1995" value="属性点" style="rounded=1;whiteSpace=wrap;html=1;shadow=0;labelBackgroundColor=none;strokeColor=none;strokeWidth=3;fillColor=#f5af58;fontFamily=Helvetica;fontSize=14;fontColor=#FFFFFF;align=center;spacing=5;arcSize=7;perimeterSpacing=2;" vertex="1" parent="1">
          <mxGeometry x="2377.5" y="-840" width="150" height="60" as="geometry" />
        </mxCell>
        <mxCell id="SqnKiE-Mk17VoA1t4yWk-1999" value="" style="edgeStyle=none;shape=connector;rounded=0;orthogonalLoop=1;jettySize=auto;html=1;strokeColor=#ffffff;strokeWidth=4;align=center;verticalAlign=middle;fontFamily=Helvetica;fontSize=11;fontColor=default;labelBackgroundColor=default;endArrow=classic;" edge="1" parent="1" source="SqnKiE-Mk17VoA1t4yWk-1996" target="SqnKiE-Mk17VoA1t4yWk-1997">
          <mxGeometry relative="1" as="geometry" />
        </mxCell>
        <mxCell id="SqnKiE-Mk17VoA1t4yWk-1996" value="属性点" style="rounded=1;whiteSpace=wrap;html=1;shadow=0;labelBackgroundColor=none;strokeColor=none;strokeWidth=3;fillColor=#f5af58;fontFamily=Helvetica;fontSize=14;fontColor=#FFFFFF;align=center;spacing=5;arcSize=7;perimeterSpacing=2;" vertex="1" parent="1">
          <mxGeometry x="1087.5" y="-600" width="150" height="60" as="geometry" />
        </mxCell>
        <mxCell id="SqnKiE-Mk17VoA1t4yWk-1998" value="" style="edgeStyle=none;shape=connector;rounded=0;orthogonalLoop=1;jettySize=auto;html=1;strokeColor=#ffffff;strokeWidth=4;align=center;verticalAlign=middle;fontFamily=Helvetica;fontSize=11;fontColor=default;labelBackgroundColor=default;endArrow=classic;" edge="1" parent="1" source="SqnKiE-Mk17VoA1t4yWk-1997" target="SqnKiE-Mk17VoA1t4yWk-1978">
          <mxGeometry relative="1" as="geometry" />
        </mxCell>
        <mxCell id="SqnKiE-Mk17VoA1t4yWk-1997" value="属性点" style="rounded=1;whiteSpace=wrap;html=1;shadow=0;labelBackgroundColor=none;strokeColor=none;strokeWidth=3;fillColor=#f5af58;fontFamily=Helvetica;fontSize=14;fontColor=#FFFFFF;align=center;spacing=5;arcSize=7;perimeterSpacing=2;" vertex="1" parent="1">
          <mxGeometry x="1087.5" y="-710" width="150" height="60" as="geometry" />
        </mxCell>
        <mxCell id="SqnKiE-Mk17VoA1t4yWk-2002" value="属性点" style="rounded=1;whiteSpace=wrap;html=1;shadow=0;labelBackgroundColor=none;strokeColor=none;strokeWidth=3;fillColor=#f5af58;fontFamily=Helvetica;fontSize=14;fontColor=#FFFFFF;align=center;spacing=5;arcSize=7;perimeterSpacing=2;" vertex="1" parent="1">
          <mxGeometry x="710" y="-840" width="150" height="60" as="geometry" />
        </mxCell>
        <mxCell id="SqnKiE-Mk17VoA1t4yWk-2003" value="属性点" style="rounded=1;whiteSpace=wrap;html=1;shadow=0;labelBackgroundColor=none;strokeColor=none;strokeWidth=3;fillColor=#f5af58;fontFamily=Helvetica;fontSize=14;fontColor=#FFFFFF;align=center;spacing=5;arcSize=7;perimeterSpacing=2;" vertex="1" parent="1">
          <mxGeometry x="892.5" y="-840" width="150" height="60" as="geometry" />
        </mxCell>
        <mxCell id="SqnKiE-Mk17VoA1t4yWk-2004" value="属性点" style="rounded=1;whiteSpace=wrap;html=1;shadow=0;labelBackgroundColor=none;strokeColor=none;strokeWidth=3;fillColor=#f5af58;fontFamily=Helvetica;fontSize=14;fontColor=#FFFFFF;align=center;spacing=5;arcSize=7;perimeterSpacing=2;" vertex="1" parent="1">
          <mxGeometry x="710" y="-970" width="150" height="60" as="geometry" />
        </mxCell>
        <mxCell id="SqnKiE-Mk17VoA1t4yWk-2005" value="属性点" style="rounded=1;whiteSpace=wrap;html=1;shadow=0;labelBackgroundColor=none;strokeColor=none;strokeWidth=3;fillColor=#f5af58;fontFamily=Helvetica;fontSize=14;fontColor=#FFFFFF;align=center;spacing=5;arcSize=7;perimeterSpacing=2;" vertex="1" parent="1">
          <mxGeometry x="890" y="-1070" width="150" height="60" as="geometry" />
        </mxCell>
        <mxCell id="SqnKiE-Mk17VoA1t4yWk-2017" value="" style="edgeStyle=none;shape=connector;rounded=0;orthogonalLoop=1;jettySize=auto;html=1;strokeColor=#ffffff;strokeWidth=4;align=center;verticalAlign=middle;fontFamily=Helvetica;fontSize=11;fontColor=default;labelBackgroundColor=default;endArrow=classic;" edge="1" parent="1" source="SqnKiE-Mk17VoA1t4yWk-2013" target="SqnKiE-Mk17VoA1t4yWk-1991">
          <mxGeometry relative="1" as="geometry" />
        </mxCell>
        <mxCell id="SqnKiE-Mk17VoA1t4yWk-2013" value="属性点" style="rounded=1;whiteSpace=wrap;html=1;shadow=0;labelBackgroundColor=none;strokeColor=none;strokeWidth=3;fillColor=#f5af58;fontFamily=Helvetica;fontSize=14;fontColor=#FFFFFF;align=center;spacing=5;arcSize=7;perimeterSpacing=2;" vertex="1" parent="1">
          <mxGeometry x="-110" y="-720" width="150" height="60" as="geometry" />
        </mxCell>
        <mxCell id="SqnKiE-Mk17VoA1t4yWk-2016" value="" style="edgeStyle=none;shape=connector;rounded=0;orthogonalLoop=1;jettySize=auto;html=1;strokeColor=#ffffff;strokeWidth=4;align=center;verticalAlign=middle;fontFamily=Helvetica;fontSize=11;fontColor=default;labelBackgroundColor=default;endArrow=classic;" edge="1" parent="1" source="SqnKiE-Mk17VoA1t4yWk-2014" target="SqnKiE-Mk17VoA1t4yWk-2013">
          <mxGeometry relative="1" as="geometry" />
        </mxCell>
        <mxCell id="SqnKiE-Mk17VoA1t4yWk-2014" value="属性点" style="rounded=1;whiteSpace=wrap;html=1;shadow=0;labelBackgroundColor=none;strokeColor=none;strokeWidth=3;fillColor=#f5af58;fontFamily=Helvetica;fontSize=14;fontColor=#FFFFFF;align=center;spacing=5;arcSize=7;perimeterSpacing=2;" vertex="1" parent="1">
          <mxGeometry x="-110" y="-610" width="150" height="60" as="geometry" />
        </mxCell>
        <mxCell id="SqnKiE-Mk17VoA1t4yWk-2021" value="属性点" style="rounded=1;whiteSpace=wrap;html=1;shadow=0;labelBackgroundColor=none;strokeColor=none;strokeWidth=3;fillColor=#f5af58;fontFamily=Helvetica;fontSize=14;fontColor=#FFFFFF;align=center;spacing=5;arcSize=7;perimeterSpacing=2;" vertex="1" parent="1">
          <mxGeometry x="90" y="-1080" width="150" height="60" as="geometry" />
        </mxCell>
        <mxCell id="SqnKiE-Mk17VoA1t4yWk-2022" value="属性点" style="rounded=1;whiteSpace=wrap;html=1;shadow=0;labelBackgroundColor=none;strokeColor=none;strokeWidth=3;fillColor=#f5af58;fontFamily=Helvetica;fontSize=14;fontColor=#FFFFFF;align=center;spacing=5;arcSize=7;perimeterSpacing=2;" vertex="1" parent="1">
          <mxGeometry x="286.5" y="-970" width="150" height="60" as="geometry" />
        </mxCell>
        <mxCell id="SqnKiE-Mk17VoA1t4yWk-2093" style="edgeStyle=none;shape=connector;rounded=0;orthogonalLoop=1;jettySize=auto;html=1;strokeColor=#ffffff;strokeWidth=4;align=center;verticalAlign=middle;fontFamily=Helvetica;fontSize=11;fontColor=default;labelBackgroundColor=default;endArrow=classic;" edge="1" parent="1" source="SqnKiE-Mk17VoA1t4yWk-2031" target="SqnKiE-Mk17VoA1t4yWk-1905">
          <mxGeometry relative="1" as="geometry" />
        </mxCell>
        <mxCell id="SqnKiE-Mk17VoA1t4yWk-2031" value="获得的防御+5" style="rounded=1;whiteSpace=wrap;html=1;shadow=0;labelBackgroundColor=none;strokeColor=none;strokeWidth=3;fillColor=#f5af58;fontFamily=Helvetica;fontSize=14;fontColor=#FFFFFF;align=center;spacing=5;arcSize=7;perimeterSpacing=2;" vertex="1" parent="1">
          <mxGeometry x="-90" y="-380" width="150" height="60" as="geometry" />
        </mxCell>
        <mxCell id="SqnKiE-Mk17VoA1t4yWk-2091" style="edgeStyle=none;shape=connector;rounded=0;orthogonalLoop=1;jettySize=auto;html=1;strokeColor=#ffffff;strokeWidth=4;align=center;verticalAlign=middle;fontFamily=Helvetica;fontSize=11;fontColor=default;labelBackgroundColor=default;endArrow=classic;" edge="1" parent="1" source="SqnKiE-Mk17VoA1t4yWk-2032" target="SqnKiE-Mk17VoA1t4yWk-2034">
          <mxGeometry relative="1" as="geometry" />
        </mxCell>
        <mxCell id="SqnKiE-Mk17VoA1t4yWk-2032" value="获得的防御+5" style="rounded=1;whiteSpace=wrap;html=1;shadow=0;labelBackgroundColor=none;strokeColor=none;strokeWidth=3;fillColor=#f5af58;fontFamily=Helvetica;fontSize=14;fontColor=#FFFFFF;align=center;spacing=5;arcSize=7;perimeterSpacing=2;" vertex="1" parent="1">
          <mxGeometry x="95" y="-170" width="150" height="60" as="geometry" />
        </mxCell>
        <mxCell id="SqnKiE-Mk17VoA1t4yWk-2085" value="" style="edgeStyle=none;shape=connector;rounded=0;orthogonalLoop=1;jettySize=auto;html=1;strokeColor=#ffffff;strokeWidth=4;align=center;verticalAlign=middle;fontFamily=Helvetica;fontSize=11;fontColor=default;labelBackgroundColor=default;endArrow=classic;" edge="1" parent="1" source="SqnKiE-Mk17VoA1t4yWk-2033" target="SqnKiE-Mk17VoA1t4yWk-2032">
          <mxGeometry relative="1" as="geometry" />
        </mxCell>
        <mxCell id="SqnKiE-Mk17VoA1t4yWk-2033" value="获得的防御+5" style="rounded=1;whiteSpace=wrap;html=1;shadow=0;labelBackgroundColor=none;strokeColor=none;strokeWidth=3;fillColor=#f5af58;fontFamily=Helvetica;fontSize=14;fontColor=#FFFFFF;align=center;spacing=5;arcSize=7;perimeterSpacing=2;" vertex="1" parent="1">
          <mxGeometry x="286.5" y="-170" width="150" height="60" as="geometry" />
        </mxCell>
        <mxCell id="SqnKiE-Mk17VoA1t4yWk-2092" style="edgeStyle=none;shape=connector;rounded=0;orthogonalLoop=1;jettySize=auto;html=1;strokeColor=#ffffff;strokeWidth=4;align=center;verticalAlign=middle;fontFamily=Helvetica;fontSize=11;fontColor=default;labelBackgroundColor=default;endArrow=classic;" edge="1" parent="1" source="SqnKiE-Mk17VoA1t4yWk-2034" target="SqnKiE-Mk17VoA1t4yWk-2031">
          <mxGeometry relative="1" as="geometry" />
        </mxCell>
        <mxCell id="SqnKiE-Mk17VoA1t4yWk-2034" value="获得的防御+5" style="rounded=1;whiteSpace=wrap;html=1;shadow=0;labelBackgroundColor=none;strokeColor=none;strokeWidth=3;fillColor=#f5af58;fontFamily=Helvetica;fontSize=14;fontColor=#FFFFFF;align=center;spacing=5;arcSize=7;perimeterSpacing=2;" vertex="1" parent="1">
          <mxGeometry x="-13.5" y="-290" width="150" height="60" as="geometry" />
        </mxCell>
        <mxCell id="SqnKiE-Mk17VoA1t4yWk-2036" value="属性点" style="rounded=1;whiteSpace=wrap;html=1;shadow=0;labelBackgroundColor=none;strokeColor=none;strokeWidth=3;fillColor=#f5af58;fontFamily=Helvetica;fontSize=14;fontColor=#FFFFFF;align=center;spacing=5;arcSize=7;perimeterSpacing=2;" vertex="1" parent="1">
          <mxGeometry x="1320" y="-610" width="150" height="60" as="geometry" />
        </mxCell>
        <mxCell id="SqnKiE-Mk17VoA1t4yWk-2037" value="属性点" style="rounded=1;whiteSpace=wrap;html=1;shadow=0;labelBackgroundColor=none;strokeColor=none;strokeWidth=3;fillColor=#f5af58;fontFamily=Helvetica;fontSize=14;fontColor=#FFFFFF;align=center;spacing=5;arcSize=7;perimeterSpacing=2;" vertex="1" parent="1">
          <mxGeometry x="1540" y="-710" width="150" height="60" as="geometry" />
        </mxCell>
        <mxCell id="SqnKiE-Mk17VoA1t4yWk-2038" value="属性点" style="rounded=1;whiteSpace=wrap;html=1;shadow=0;labelBackgroundColor=none;strokeColor=none;strokeWidth=3;fillColor=#f5af58;fontFamily=Helvetica;fontSize=14;fontColor=#FFFFFF;align=center;spacing=5;arcSize=7;perimeterSpacing=2;" vertex="1" parent="1">
          <mxGeometry x="2180" y="-1070" width="150" height="60" as="geometry" />
        </mxCell>
        <mxCell id="SqnKiE-Mk17VoA1t4yWk-2039" value="属性点" style="rounded=1;whiteSpace=wrap;html=1;shadow=0;labelBackgroundColor=none;strokeColor=none;strokeWidth=3;fillColor=#f5af58;fontFamily=Helvetica;fontSize=14;fontColor=#FFFFFF;align=center;spacing=5;arcSize=7;perimeterSpacing=2;" vertex="1" parent="1">
          <mxGeometry x="2377.5" y="-1070" width="150" height="60" as="geometry" />
        </mxCell>
        <mxCell id="SqnKiE-Mk17VoA1t4yWk-2040" value="属性点" style="rounded=1;whiteSpace=wrap;html=1;shadow=0;labelBackgroundColor=none;strokeColor=none;strokeWidth=3;fillColor=#f5af58;fontFamily=Helvetica;fontSize=14;fontColor=#FFFFFF;align=center;spacing=5;arcSize=7;perimeterSpacing=2;" vertex="1" parent="1">
          <mxGeometry x="1530" y="-840" width="150" height="60" as="geometry" />
        </mxCell>
        <mxCell id="SqnKiE-Mk17VoA1t4yWk-2041" value="属性点" style="rounded=1;whiteSpace=wrap;html=1;shadow=0;labelBackgroundColor=none;strokeColor=none;strokeWidth=3;fillColor=#f5af58;fontFamily=Helvetica;fontSize=14;fontColor=#FFFFFF;align=center;spacing=5;arcSize=7;perimeterSpacing=2;" vertex="1" parent="1">
          <mxGeometry x="1980" y="-840" width="150" height="60" as="geometry" />
        </mxCell>
        <mxCell id="SqnKiE-Mk17VoA1t4yWk-2042" value="属性点" style="rounded=1;whiteSpace=wrap;html=1;shadow=0;labelBackgroundColor=none;strokeColor=none;strokeWidth=3;fillColor=#f5af58;fontFamily=Helvetica;fontSize=14;fontColor=#FFFFFF;align=center;spacing=5;arcSize=7;perimeterSpacing=2;" vertex="1" parent="1">
          <mxGeometry x="2180" y="-840" width="150" height="60" as="geometry" />
        </mxCell>
        <mxCell id="SqnKiE-Mk17VoA1t4yWk-2043" value="属性点" style="rounded=1;whiteSpace=wrap;html=1;shadow=0;labelBackgroundColor=none;strokeColor=none;strokeWidth=3;fillColor=#f5af58;fontFamily=Helvetica;fontSize=14;fontColor=#FFFFFF;align=center;spacing=5;arcSize=7;perimeterSpacing=2;" vertex="1" parent="1">
          <mxGeometry x="1757.5" y="-1190" width="150" height="60" as="geometry" />
        </mxCell>
        <mxCell id="SqnKiE-Mk17VoA1t4yWk-2044" value="属性点" style="rounded=1;whiteSpace=wrap;html=1;shadow=0;labelBackgroundColor=none;strokeColor=none;strokeWidth=3;fillColor=#f5af58;fontFamily=Helvetica;fontSize=14;fontColor=#FFFFFF;align=center;spacing=5;arcSize=7;perimeterSpacing=2;" vertex="1" parent="1">
          <mxGeometry x="1320" y="-1190" width="150" height="60" as="geometry" />
        </mxCell>
        <mxCell id="SqnKiE-Mk17VoA1t4yWk-2045" value="属性点" style="rounded=1;whiteSpace=wrap;html=1;shadow=0;labelBackgroundColor=none;strokeColor=none;strokeWidth=3;fillColor=#f5af58;fontFamily=Helvetica;fontSize=14;fontColor=#FFFFFF;align=center;spacing=5;arcSize=7;perimeterSpacing=2;" vertex="1" parent="1">
          <mxGeometry x="1540" y="-1190" width="150" height="60" as="geometry" />
        </mxCell>
        <mxCell id="SqnKiE-Mk17VoA1t4yWk-2046" value="属性点" style="rounded=1;whiteSpace=wrap;html=1;shadow=0;labelBackgroundColor=none;strokeColor=none;strokeWidth=3;fillColor=#f5af58;fontFamily=Helvetica;fontSize=14;fontColor=#FFFFFF;align=center;spacing=5;arcSize=7;perimeterSpacing=2;" vertex="1" parent="1">
          <mxGeometry x="1980" y="-1190" width="150" height="60" as="geometry" />
        </mxCell>
        <mxCell id="SqnKiE-Mk17VoA1t4yWk-2047" value="属性点" style="rounded=1;whiteSpace=wrap;html=1;shadow=0;labelBackgroundColor=none;strokeColor=none;strokeWidth=3;fillColor=#f5af58;fontFamily=Helvetica;fontSize=14;fontColor=#FFFFFF;align=center;spacing=5;arcSize=7;perimeterSpacing=2;" vertex="1" parent="1">
          <mxGeometry x="2180" y="-1190" width="150" height="60" as="geometry" />
        </mxCell>
        <mxCell id="SqnKiE-Mk17VoA1t4yWk-2048" value="属性点" style="rounded=1;whiteSpace=wrap;html=1;shadow=0;labelBackgroundColor=none;strokeColor=none;strokeWidth=3;fillColor=#f5af58;fontFamily=Helvetica;fontSize=14;fontColor=#FFFFFF;align=center;spacing=5;arcSize=7;perimeterSpacing=2;" vertex="1" parent="1">
          <mxGeometry x="1753.5" y="-970" width="150" height="60" as="geometry" />
        </mxCell>
        <mxCell id="SqnKiE-Mk17VoA1t4yWk-2049" value="属性点" style="rounded=1;whiteSpace=wrap;html=1;shadow=0;labelBackgroundColor=none;strokeColor=none;strokeWidth=3;fillColor=#f5af58;fontFamily=Helvetica;fontSize=14;fontColor=#FFFFFF;align=center;spacing=5;arcSize=7;perimeterSpacing=2;" vertex="1" parent="1">
          <mxGeometry x="1757.5" y="-1070" width="150" height="60" as="geometry" />
        </mxCell>
        <mxCell id="SqnKiE-Mk17VoA1t4yWk-2050" value="属性点" style="rounded=1;whiteSpace=wrap;html=1;shadow=0;labelBackgroundColor=none;strokeColor=none;strokeWidth=3;fillColor=#f5af58;fontFamily=Helvetica;fontSize=14;fontColor=#FFFFFF;align=center;spacing=5;arcSize=7;perimeterSpacing=2;" vertex="1" parent="1">
          <mxGeometry x="80" y="-840" width="150" height="60" as="geometry" />
        </mxCell>
        <mxCell id="SqnKiE-Mk17VoA1t4yWk-2051" value="属性点" style="rounded=1;whiteSpace=wrap;html=1;shadow=0;labelBackgroundColor=none;strokeColor=none;strokeWidth=3;fillColor=#f5af58;fontFamily=Helvetica;fontSize=14;fontColor=#FFFFFF;align=center;spacing=5;arcSize=7;perimeterSpacing=2;" vertex="1" parent="1">
          <mxGeometry x="286.5" y="-840" width="150" height="60" as="geometry" />
        </mxCell>
        <mxCell id="SqnKiE-Mk17VoA1t4yWk-2052" value="属性点" style="rounded=1;whiteSpace=wrap;html=1;shadow=0;labelBackgroundColor=none;strokeColor=none;strokeWidth=3;fillColor=#f5af58;fontFamily=Helvetica;fontSize=14;fontColor=#FFFFFF;align=center;spacing=5;arcSize=7;perimeterSpacing=2;" vertex="1" parent="1">
          <mxGeometry x="95" y="-500" width="150" height="60" as="geometry" />
        </mxCell>
        <mxCell id="SqnKiE-Mk17VoA1t4yWk-2053" value="属性点" style="rounded=1;whiteSpace=wrap;html=1;shadow=0;labelBackgroundColor=none;strokeColor=none;strokeWidth=3;fillColor=#f5af58;fontFamily=Helvetica;fontSize=14;fontColor=#FFFFFF;align=center;spacing=5;arcSize=7;perimeterSpacing=2;" vertex="1" parent="1">
          <mxGeometry x="286.5" y="-500" width="150" height="60" as="geometry" />
        </mxCell>
        <mxCell id="SqnKiE-Mk17VoA1t4yWk-2054" value="属性点" style="rounded=1;whiteSpace=wrap;html=1;shadow=0;labelBackgroundColor=none;strokeColor=none;strokeWidth=3;fillColor=#f5af58;fontFamily=Helvetica;fontSize=14;fontColor=#FFFFFF;align=center;spacing=5;arcSize=7;perimeterSpacing=2;" vertex="1" parent="1">
          <mxGeometry x="710" y="-500" width="150" height="60" as="geometry" />
        </mxCell>
        <mxCell id="SqnKiE-Mk17VoA1t4yWk-2055" value="属性点" style="rounded=1;whiteSpace=wrap;html=1;shadow=0;labelBackgroundColor=none;strokeColor=none;strokeWidth=3;fillColor=#f5af58;fontFamily=Helvetica;fontSize=14;fontColor=#FFFFFF;align=center;spacing=5;arcSize=7;perimeterSpacing=2;" vertex="1" parent="1">
          <mxGeometry x="890" y="-500" width="150" height="60" as="geometry" />
        </mxCell>
        <mxCell id="SqnKiE-Mk17VoA1t4yWk-2087" value="" style="edgeStyle=none;shape=connector;rounded=0;orthogonalLoop=1;jettySize=auto;html=1;strokeColor=#ffffff;strokeWidth=4;align=center;verticalAlign=middle;fontFamily=Helvetica;fontSize=11;fontColor=default;labelBackgroundColor=default;endArrow=classic;" edge="1" parent="1" source="SqnKiE-Mk17VoA1t4yWk-2056" target="SqnKiE-Mk17VoA1t4yWk-2057">
          <mxGeometry relative="1" as="geometry" />
        </mxCell>
        <mxCell id="SqnKiE-Mk17VoA1t4yWk-2056" value="属性点" style="rounded=1;whiteSpace=wrap;html=1;shadow=0;labelBackgroundColor=none;strokeColor=none;strokeWidth=3;fillColor=#f5af58;fontFamily=Helvetica;fontSize=14;fontColor=#FFFFFF;align=center;spacing=5;arcSize=7;perimeterSpacing=2;" vertex="1" parent="1">
          <mxGeometry x="710" y="-170" width="150" height="60" as="geometry" />
        </mxCell>
        <mxCell id="SqnKiE-Mk17VoA1t4yWk-2057" value="属性点" style="rounded=1;whiteSpace=wrap;html=1;shadow=0;labelBackgroundColor=none;strokeColor=none;strokeWidth=3;fillColor=#f5af58;fontFamily=Helvetica;fontSize=14;fontColor=#FFFFFF;align=center;spacing=5;arcSize=7;perimeterSpacing=2;" vertex="1" parent="1">
          <mxGeometry x="892.5" y="-170" width="150" height="60" as="geometry" />
        </mxCell>
        <mxCell id="SqnKiE-Mk17VoA1t4yWk-2058" value="属性点" style="rounded=1;whiteSpace=wrap;html=1;shadow=0;labelBackgroundColor=none;strokeColor=none;strokeWidth=3;fillColor=#f5af58;fontFamily=Helvetica;fontSize=14;fontColor=#FFFFFF;align=center;spacing=5;arcSize=7;perimeterSpacing=2;" vertex="1" parent="1">
          <mxGeometry x="1320" y="-500" width="150" height="60" as="geometry" />
        </mxCell>
        <mxCell id="SqnKiE-Mk17VoA1t4yWk-2059" value="属性点" style="rounded=1;whiteSpace=wrap;html=1;shadow=0;labelBackgroundColor=none;strokeColor=none;strokeWidth=3;fillColor=#f5af58;fontFamily=Helvetica;fontSize=14;fontColor=#FFFFFF;align=center;spacing=5;arcSize=7;perimeterSpacing=2;" vertex="1" parent="1">
          <mxGeometry x="1540" y="-500" width="150" height="60" as="geometry" />
        </mxCell>
        <mxCell id="SqnKiE-Mk17VoA1t4yWk-2060" value="属性点" style="rounded=1;whiteSpace=wrap;html=1;shadow=0;labelBackgroundColor=none;strokeColor=none;strokeWidth=3;fillColor=#f5af58;fontFamily=Helvetica;fontSize=14;fontColor=#FFFFFF;align=center;spacing=5;arcSize=7;perimeterSpacing=2;" vertex="1" parent="1">
          <mxGeometry x="-500" y="-1190" width="150" height="60" as="geometry" />
        </mxCell>
        <mxCell id="SqnKiE-Mk17VoA1t4yWk-2061" value="属性点" style="rounded=1;whiteSpace=wrap;html=1;shadow=0;labelBackgroundColor=none;strokeColor=none;strokeWidth=3;fillColor=#f5af58;fontFamily=Helvetica;fontSize=14;fontColor=#FFFFFF;align=center;spacing=5;arcSize=7;perimeterSpacing=2;" vertex="1" parent="1">
          <mxGeometry x="-702.5" y="-1190" width="150" height="60" as="geometry" />
        </mxCell>
        <mxCell id="SqnKiE-Mk17VoA1t4yWk-2062" value="属性点" style="rounded=1;whiteSpace=wrap;html=1;shadow=0;labelBackgroundColor=none;strokeColor=none;strokeWidth=3;fillColor=#f5af58;fontFamily=Helvetica;fontSize=14;fontColor=#FFFFFF;align=center;spacing=5;arcSize=7;perimeterSpacing=2;" vertex="1" parent="1">
          <mxGeometry x="-910" y="-1190" width="150" height="60" as="geometry" />
        </mxCell>
        <mxCell id="SqnKiE-Mk17VoA1t4yWk-2063" value="属性点" style="rounded=1;whiteSpace=wrap;html=1;shadow=0;labelBackgroundColor=none;strokeColor=none;strokeWidth=3;fillColor=#f5af58;fontFamily=Helvetica;fontSize=14;fontColor=#FFFFFF;align=center;spacing=5;arcSize=7;perimeterSpacing=2;" vertex="1" parent="1">
          <mxGeometry x="-1100" y="-1190" width="150" height="60" as="geometry" />
        </mxCell>
        <mxCell id="SqnKiE-Mk17VoA1t4yWk-2065" value="获得的防御+5" style="rounded=1;whiteSpace=wrap;html=1;shadow=0;labelBackgroundColor=none;strokeColor=none;strokeWidth=3;fillColor=#f5af58;fontFamily=Helvetica;fontSize=14;fontColor=#FFFFFF;align=center;spacing=5;arcSize=7;perimeterSpacing=2;" vertex="1" parent="1">
          <mxGeometry x="-490" y="-720" width="150" height="60" as="geometry" />
        </mxCell>
        <mxCell id="SqnKiE-Mk17VoA1t4yWk-2066" value="获得的防御+5" style="rounded=1;whiteSpace=wrap;html=1;shadow=0;labelBackgroundColor=none;strokeColor=none;strokeWidth=3;fillColor=#f5af58;fontFamily=Helvetica;fontSize=14;fontColor=#FFFFFF;align=center;spacing=5;arcSize=7;perimeterSpacing=2;" vertex="1" parent="1">
          <mxGeometry x="-310" y="-610" width="150" height="60" as="geometry" />
        </mxCell>
        <mxCell id="SqnKiE-Mk17VoA1t4yWk-2067" value="获得的防御+5" style="rounded=1;whiteSpace=wrap;html=1;shadow=0;labelBackgroundColor=none;strokeColor=none;strokeWidth=3;fillColor=#f5af58;fontFamily=Helvetica;fontSize=14;fontColor=#FFFFFF;align=center;spacing=5;arcSize=7;perimeterSpacing=2;" vertex="1" parent="1">
          <mxGeometry x="-702.5" y="-720" width="150" height="60" as="geometry" />
        </mxCell>
        <mxCell id="SqnKiE-Mk17VoA1t4yWk-2068" value="获得的防御+5" style="rounded=1;whiteSpace=wrap;html=1;shadow=0;labelBackgroundColor=none;strokeColor=none;strokeWidth=3;fillColor=#f5af58;fontFamily=Helvetica;fontSize=14;fontColor=#FFFFFF;align=center;spacing=5;arcSize=7;perimeterSpacing=2;" vertex="1" parent="1">
          <mxGeometry x="-702.5" y="-610" width="150" height="60" as="geometry" />
        </mxCell>
        <mxCell id="SqnKiE-Mk17VoA1t4yWk-2069" value="获得的防御+5" style="rounded=1;whiteSpace=wrap;html=1;shadow=0;labelBackgroundColor=none;strokeColor=none;strokeWidth=3;fillColor=#f5af58;fontFamily=Helvetica;fontSize=14;fontColor=#FFFFFF;align=center;spacing=5;arcSize=7;perimeterSpacing=2;" vertex="1" parent="1">
          <mxGeometry x="-490" y="-400" width="150" height="60" as="geometry" />
        </mxCell>
        <mxCell id="SqnKiE-Mk17VoA1t4yWk-2070" value="获得的防御+5" style="rounded=1;whiteSpace=wrap;html=1;shadow=0;labelBackgroundColor=none;strokeColor=none;strokeWidth=3;fillColor=#f5af58;fontFamily=Helvetica;fontSize=14;fontColor=#FFFFFF;align=center;spacing=5;arcSize=7;perimeterSpacing=2;" vertex="1" parent="1">
          <mxGeometry x="-490" y="-500" width="150" height="60" as="geometry" />
        </mxCell>
        <mxCell id="SqnKiE-Mk17VoA1t4yWk-2071" value="获得的防御+5" style="rounded=1;whiteSpace=wrap;html=1;shadow=0;labelBackgroundColor=none;strokeColor=none;strokeWidth=3;fillColor=#f5af58;fontFamily=Helvetica;fontSize=14;fontColor=#FFFFFF;align=center;spacing=5;arcSize=7;perimeterSpacing=2;" vertex="1" parent="1">
          <mxGeometry x="-310" y="-500" width="150" height="60" as="geometry" />
        </mxCell>
        <mxCell id="SqnKiE-Mk17VoA1t4yWk-2072" style="edgeStyle=none;shape=connector;rounded=0;orthogonalLoop=1;jettySize=auto;html=1;exitX=0.5;exitY=1;exitDx=0;exitDy=0;strokeColor=#ffffff;strokeWidth=4;align=center;verticalAlign=middle;fontFamily=Helvetica;fontSize=11;fontColor=default;labelBackgroundColor=default;endArrow=classic;" edge="1" parent="1" source="SqnKiE-Mk17VoA1t4yWk-2067" target="SqnKiE-Mk17VoA1t4yWk-2067">
          <mxGeometry relative="1" as="geometry" />
        </mxCell>
        <mxCell id="SqnKiE-Mk17VoA1t4yWk-2073" value="获得的防御+5" style="rounded=1;whiteSpace=wrap;html=1;shadow=0;labelBackgroundColor=none;strokeColor=none;strokeWidth=3;fillColor=#f5af58;fontFamily=Helvetica;fontSize=14;fontColor=#FFFFFF;align=center;spacing=5;arcSize=7;perimeterSpacing=2;" vertex="1" parent="1">
          <mxGeometry x="-890" y="-610" width="150" height="60" as="geometry" />
        </mxCell>
        <mxCell id="SqnKiE-Mk17VoA1t4yWk-2074" value="获得的防御+5" style="rounded=1;whiteSpace=wrap;html=1;shadow=0;labelBackgroundColor=none;strokeColor=none;strokeWidth=3;fillColor=#f5af58;fontFamily=Helvetica;fontSize=14;fontColor=#FFFFFF;align=center;spacing=5;arcSize=7;perimeterSpacing=2;" vertex="1" parent="1">
          <mxGeometry x="-1060" y="-720" width="150" height="60" as="geometry" />
        </mxCell>
        <mxCell id="SqnKiE-Mk17VoA1t4yWk-2075" value="获得的防御+5" style="rounded=1;whiteSpace=wrap;html=1;shadow=0;labelBackgroundColor=none;strokeColor=none;strokeWidth=3;fillColor=#f5af58;fontFamily=Helvetica;fontSize=14;fontColor=#FFFFFF;align=center;spacing=5;arcSize=7;perimeterSpacing=2;" vertex="1" parent="1">
          <mxGeometry x="-1310" y="-840" width="150" height="60" as="geometry" />
        </mxCell>
        <mxCell id="SqnKiE-Mk17VoA1t4yWk-2076" value="获得的防御+5" style="rounded=1;whiteSpace=wrap;html=1;shadow=0;labelBackgroundColor=none;strokeColor=none;strokeWidth=3;fillColor=#f5af58;fontFamily=Helvetica;fontSize=14;fontColor=#FFFFFF;align=center;spacing=5;arcSize=7;perimeterSpacing=2;" vertex="1" parent="1">
          <mxGeometry x="-1100" y="-840" width="150" height="60" as="geometry" />
        </mxCell>
        <mxCell id="SqnKiE-Mk17VoA1t4yWk-2077" value="获得的防御+5" style="rounded=1;whiteSpace=wrap;html=1;shadow=0;labelBackgroundColor=none;strokeColor=none;strokeWidth=3;fillColor=#f5af58;fontFamily=Helvetica;fontSize=14;fontColor=#FFFFFF;align=center;spacing=5;arcSize=7;perimeterSpacing=2;" vertex="1" parent="1">
          <mxGeometry x="-910" y="-840" width="150" height="60" as="geometry" />
        </mxCell>
        <mxCell id="SqnKiE-Mk17VoA1t4yWk-2078" value="获得的防御+5" style="rounded=1;whiteSpace=wrap;html=1;shadow=0;labelBackgroundColor=none;strokeColor=none;strokeWidth=3;fillColor=#f5af58;fontFamily=Helvetica;fontSize=14;fontColor=#FFFFFF;align=center;spacing=5;arcSize=7;perimeterSpacing=2;" vertex="1" parent="1">
          <mxGeometry x="-1310" y="-960" width="150" height="60" as="geometry" />
        </mxCell>
        <mxCell id="SqnKiE-Mk17VoA1t4yWk-2079" value="获得的防御+5" style="rounded=1;whiteSpace=wrap;html=1;shadow=0;labelBackgroundColor=none;strokeColor=none;strokeWidth=3;fillColor=#f5af58;fontFamily=Helvetica;fontSize=14;fontColor=#FFFFFF;align=center;spacing=5;arcSize=7;perimeterSpacing=2;" vertex="1" parent="1">
          <mxGeometry x="-1310" y="-1070" width="150" height="60" as="geometry" />
        </mxCell>
        <mxCell id="SqnKiE-Mk17VoA1t4yWk-2080" value="获得的防御+5" style="rounded=1;whiteSpace=wrap;html=1;shadow=0;labelBackgroundColor=none;strokeColor=none;strokeWidth=3;fillColor=#f5af58;fontFamily=Helvetica;fontSize=14;fontColor=#FFFFFF;align=center;spacing=5;arcSize=7;perimeterSpacing=2;" vertex="1" parent="1">
          <mxGeometry x="-702.5" y="-1090" width="150" height="60" as="geometry" />
        </mxCell>
        <mxCell id="SqnKiE-Mk17VoA1t4yWk-2081" value="获得的防御+5" style="rounded=1;whiteSpace=wrap;html=1;shadow=0;labelBackgroundColor=none;strokeColor=none;strokeWidth=3;fillColor=#f5af58;fontFamily=Helvetica;fontSize=14;fontColor=#FFFFFF;align=center;spacing=5;arcSize=7;perimeterSpacing=2;" vertex="1" parent="1">
          <mxGeometry x="-702.5" y="-970" width="150" height="60" as="geometry" />
        </mxCell>
        <mxCell id="SqnKiE-Mk17VoA1t4yWk-2082" value="获得的防御+5" style="rounded=1;whiteSpace=wrap;html=1;shadow=0;labelBackgroundColor=none;strokeColor=none;strokeWidth=3;fillColor=#f5af58;fontFamily=Helvetica;fontSize=14;fontColor=#FFFFFF;align=center;spacing=5;arcSize=7;perimeterSpacing=2;" vertex="1" parent="1">
          <mxGeometry x="-1100" y="-1070" width="150" height="60" as="geometry" />
        </mxCell>
        <mxCell id="SqnKiE-Mk17VoA1t4yWk-2083" value="获得的防御+5" style="rounded=1;whiteSpace=wrap;html=1;shadow=0;labelBackgroundColor=none;strokeColor=none;strokeWidth=3;fillColor=#f5af58;fontFamily=Helvetica;fontSize=14;fontColor=#FFFFFF;align=center;spacing=5;arcSize=7;perimeterSpacing=2;" vertex="1" parent="1">
          <mxGeometry x="-900" y="-970" width="150" height="60" as="geometry" />
        </mxCell>
        <mxCell id="SqnKiE-Mk17VoA1t4yWk-2088" value="获得的防御+5" style="rounded=1;whiteSpace=wrap;html=1;shadow=0;labelBackgroundColor=none;strokeColor=none;strokeWidth=3;fillColor=#f5af58;fontFamily=Helvetica;fontSize=14;fontColor=#FFFFFF;align=center;spacing=5;arcSize=7;perimeterSpacing=2;" vertex="1" parent="1">
          <mxGeometry x="-500" y="-970" width="150" height="60" as="geometry" />
        </mxCell>
        <mxCell id="SqnKiE-Mk17VoA1t4yWk-2089" value="获得的防御+5" style="rounded=1;whiteSpace=wrap;html=1;shadow=0;labelBackgroundColor=none;strokeColor=none;strokeWidth=3;fillColor=#f5af58;fontFamily=Helvetica;fontSize=14;fontColor=#FFFFFF;align=center;spacing=5;arcSize=7;perimeterSpacing=2;" vertex="1" parent="1">
          <mxGeometry x="-320" y="-1070" width="150" height="60" as="geometry" />
        </mxCell>
      </root>
    </mxGraphModel>
  </diagram>
</mxfile>
